<?xml version="1.0" encoding="utf-8" standalone="no"?>
<!DOCTYPE svg PUBLIC "-//W3C//DTD SVG 1.1//EN"
  "http://www.w3.org/Graphics/SVG/1.1/DTD/svg11.dtd">
<svg height="576pt" version="1.1" viewBox="0 0 1080 576" width="1080pt" xmlns="http://www.w3.org/2000/svg" xmlns:xlink="http://www.w3.org/1999/xlink">
 <metadata>
  <rdf:RDF xmlns:cc="http://creativecommons.org/ns#" xmlns:dc="http://purl.org/dc/elements/1.1/" xmlns:rdf="http://www.w3.org/1999/02/22-rdf-syntax-ns#">
   <cc:Work>
    <dc:type rdf:resource="http://purl.org/dc/dcmitype/StillImage"/>
    <dc:date>2021-12-21T12:31:00.288109</dc:date>
    <dc:format>image/svg+xml</dc:format>
    <dc:creator>
     <cc:Agent>
      <dc:title>Matplotlib v3.4.3, https://matplotlib.org/</dc:title>
     </cc:Agent>
    </dc:creator>
   </cc:Work>
  </rdf:RDF>
 </metadata>
 <defs>
  <style type="text/css">*{stroke-linecap:butt;stroke-linejoin:round;}</style>
 </defs>
 <g id="figure_1">
  <g id="patch_1">
   <path d="M 0 576 
L 1080 576 
L 1080 0 
L 0 0 
z
" style="fill:#ffffff;"/>
  </g>
  <g id="axes_1">
   <g id="patch_2">
    <path d="M 135 512.64 
L 972 512.64 
L 972 69.12 
L 135 69.12 
z
" style="fill:#ffffff;"/>
   </g>
   <g id="matplotlib.axis_1">
    <g id="text_1">
     <!-- Days -->
     <g style="fill:#262626;" transform="translate(542.108594 523.797812)scale(0.1 -0.1)">
      <defs>
       <path d="M 494 0 
L 494 4581 
L 2072 4581 
Q 2606 4581 2888 4516 
Q 3281 4425 3559 4188 
Q 3922 3881 4101 3404 
Q 4281 2928 4281 2316 
Q 4281 1794 4159 1391 
Q 4038 988 3847 723 
Q 3656 459 3429 307 
Q 3203 156 2883 78 
Q 2563 0 2147 0 
L 494 0 
z
M 1100 541 
L 2078 541 
Q 2531 541 2789 625 
Q 3047 709 3200 863 
Q 3416 1078 3536 1442 
Q 3656 1806 3656 2325 
Q 3656 3044 3420 3430 
Q 3184 3816 2847 3947 
Q 2603 4041 2063 4041 
L 1100 4041 
L 1100 541 
z
" id="ArialMT-44" transform="scale(0.015625)"/>
       <path d="M 2588 409 
Q 2275 144 1986 34 
Q 1697 -75 1366 -75 
Q 819 -75 525 192 
Q 231 459 231 875 
Q 231 1119 342 1320 
Q 453 1522 633 1644 
Q 813 1766 1038 1828 
Q 1203 1872 1538 1913 
Q 2219 1994 2541 2106 
Q 2544 2222 2544 2253 
Q 2544 2597 2384 2738 
Q 2169 2928 1744 2928 
Q 1347 2928 1158 2789 
Q 969 2650 878 2297 
L 328 2372 
Q 403 2725 575 2942 
Q 747 3159 1072 3276 
Q 1397 3394 1825 3394 
Q 2250 3394 2515 3294 
Q 2781 3194 2906 3042 
Q 3031 2891 3081 2659 
Q 3109 2516 3109 2141 
L 3109 1391 
Q 3109 606 3145 398 
Q 3181 191 3288 0 
L 2700 0 
Q 2613 175 2588 409 
z
M 2541 1666 
Q 2234 1541 1622 1453 
Q 1275 1403 1131 1340 
Q 988 1278 909 1158 
Q 831 1038 831 891 
Q 831 666 1001 516 
Q 1172 366 1500 366 
Q 1825 366 2078 508 
Q 2331 650 2450 897 
Q 2541 1088 2541 1459 
L 2541 1666 
z
" id="ArialMT-61" transform="scale(0.015625)"/>
       <path d="M 397 -1278 
L 334 -750 
Q 519 -800 656 -800 
Q 844 -800 956 -737 
Q 1069 -675 1141 -563 
Q 1194 -478 1313 -144 
Q 1328 -97 1363 -6 
L 103 3319 
L 709 3319 
L 1400 1397 
Q 1534 1031 1641 628 
Q 1738 1016 1872 1384 
L 2581 3319 
L 3144 3319 
L 1881 -56 
Q 1678 -603 1566 -809 
Q 1416 -1088 1222 -1217 
Q 1028 -1347 759 -1347 
Q 597 -1347 397 -1278 
z
" id="ArialMT-79" transform="scale(0.015625)"/>
       <path d="M 197 991 
L 753 1078 
Q 800 744 1014 566 
Q 1228 388 1613 388 
Q 2000 388 2187 545 
Q 2375 703 2375 916 
Q 2375 1106 2209 1216 
Q 2094 1291 1634 1406 
Q 1016 1563 777 1677 
Q 538 1791 414 1992 
Q 291 2194 291 2438 
Q 291 2659 392 2848 
Q 494 3038 669 3163 
Q 800 3259 1026 3326 
Q 1253 3394 1513 3394 
Q 1903 3394 2198 3281 
Q 2494 3169 2634 2976 
Q 2775 2784 2828 2463 
L 2278 2388 
Q 2241 2644 2061 2787 
Q 1881 2931 1553 2931 
Q 1166 2931 1000 2803 
Q 834 2675 834 2503 
Q 834 2394 903 2306 
Q 972 2216 1119 2156 
Q 1203 2125 1616 2013 
Q 2213 1853 2448 1751 
Q 2684 1650 2818 1456 
Q 2953 1263 2953 975 
Q 2953 694 2789 445 
Q 2625 197 2315 61 
Q 2006 -75 1616 -75 
Q 969 -75 630 194 
Q 291 463 197 991 
z
" id="ArialMT-73" transform="scale(0.015625)"/>
      </defs>
      <use xlink:href="#ArialMT-44"/>
      <use x="72.216797" xlink:href="#ArialMT-61"/>
      <use x="127.832031" xlink:href="#ArialMT-79"/>
      <use x="177.832031" xlink:href="#ArialMT-73"/>
     </g>
    </g>
   </g>
   <g id="matplotlib.axis_2">
    <g id="ytick_1">
     <g id="line2d_1">
      <path clip-path="url(#pa5a2da8c1e)" d="M 135 512.64 
L 972 512.64 
" style="fill:none;stroke:#808080;stroke-linecap:round;stroke-width:0.5;"/>
     </g>
     <g id="text_2">
      <!-- 0 -->
      <g style="fill:#262626;" transform="translate(122.439063 516.218906)scale(0.1 -0.1)">
       <defs>
        <path d="M 266 2259 
Q 266 3072 433 3567 
Q 600 4063 929 4331 
Q 1259 4600 1759 4600 
Q 2128 4600 2406 4451 
Q 2684 4303 2865 4023 
Q 3047 3744 3150 3342 
Q 3253 2941 3253 2259 
Q 3253 1453 3087 958 
Q 2922 463 2592 192 
Q 2263 -78 1759 -78 
Q 1097 -78 719 397 
Q 266 969 266 2259 
z
M 844 2259 
Q 844 1131 1108 757 
Q 1372 384 1759 384 
Q 2147 384 2411 759 
Q 2675 1134 2675 2259 
Q 2675 3391 2411 3762 
Q 2147 4134 1753 4134 
Q 1366 4134 1134 3806 
Q 844 3388 844 2259 
z
" id="ArialMT-30" transform="scale(0.015625)"/>
       </defs>
       <use xlink:href="#ArialMT-30"/>
      </g>
     </g>
    </g>
    <g id="ytick_2">
     <g id="line2d_2">
      <path clip-path="url(#pa5a2da8c1e)" d="M 135 437.076494 
L 972 437.076494 
" style="fill:none;stroke:#808080;stroke-linecap:round;stroke-width:0.5;"/>
     </g>
     <g id="text_3">
      <!-- 2000 -->
      <g style="fill:#262626;" transform="translate(105.75625 440.6554)scale(0.1 -0.1)">
       <defs>
        <path d="M 3222 541 
L 3222 0 
L 194 0 
Q 188 203 259 391 
Q 375 700 629 1000 
Q 884 1300 1366 1694 
Q 2113 2306 2375 2664 
Q 2638 3022 2638 3341 
Q 2638 3675 2398 3904 
Q 2159 4134 1775 4134 
Q 1369 4134 1125 3890 
Q 881 3647 878 3216 
L 300 3275 
Q 359 3922 746 4261 
Q 1134 4600 1788 4600 
Q 2447 4600 2831 4234 
Q 3216 3869 3216 3328 
Q 3216 3053 3103 2787 
Q 2991 2522 2730 2228 
Q 2469 1934 1863 1422 
Q 1356 997 1212 845 
Q 1069 694 975 541 
L 3222 541 
z
" id="ArialMT-32" transform="scale(0.015625)"/>
       </defs>
       <use xlink:href="#ArialMT-32"/>
       <use x="55.615234" xlink:href="#ArialMT-30"/>
       <use x="111.230469" xlink:href="#ArialMT-30"/>
       <use x="166.845703" xlink:href="#ArialMT-30"/>
      </g>
     </g>
    </g>
    <g id="ytick_3">
     <g id="line2d_3">
      <path clip-path="url(#pa5a2da8c1e)" d="M 135 361.512987 
L 972 361.512987 
" style="fill:none;stroke:#808080;stroke-linecap:round;stroke-width:0.5;"/>
     </g>
     <g id="text_4">
      <!-- 4000 -->
      <g style="fill:#262626;" transform="translate(105.75625 365.091894)scale(0.1 -0.1)">
       <defs>
        <path d="M 2069 0 
L 2069 1097 
L 81 1097 
L 81 1613 
L 2172 4581 
L 2631 4581 
L 2631 1613 
L 3250 1613 
L 3250 1097 
L 2631 1097 
L 2631 0 
L 2069 0 
z
M 2069 1613 
L 2069 3678 
L 634 1613 
L 2069 1613 
z
" id="ArialMT-34" transform="scale(0.015625)"/>
       </defs>
       <use xlink:href="#ArialMT-34"/>
       <use x="55.615234" xlink:href="#ArialMT-30"/>
       <use x="111.230469" xlink:href="#ArialMT-30"/>
       <use x="166.845703" xlink:href="#ArialMT-30"/>
      </g>
     </g>
    </g>
    <g id="ytick_4">
     <g id="line2d_4">
      <path clip-path="url(#pa5a2da8c1e)" d="M 135 285.949481 
L 972 285.949481 
" style="fill:none;stroke:#808080;stroke-linecap:round;stroke-width:0.5;"/>
     </g>
     <g id="text_5">
      <!-- 6000 -->
      <g style="fill:#262626;" transform="translate(105.75625 289.528387)scale(0.1 -0.1)">
       <defs>
        <path d="M 3184 3459 
L 2625 3416 
Q 2550 3747 2413 3897 
Q 2184 4138 1850 4138 
Q 1581 4138 1378 3988 
Q 1113 3794 959 3422 
Q 806 3050 800 2363 
Q 1003 2672 1297 2822 
Q 1591 2972 1913 2972 
Q 2475 2972 2870 2558 
Q 3266 2144 3266 1488 
Q 3266 1056 3080 686 
Q 2894 316 2569 119 
Q 2244 -78 1831 -78 
Q 1128 -78 684 439 
Q 241 956 241 2144 
Q 241 3472 731 4075 
Q 1159 4600 1884 4600 
Q 2425 4600 2770 4297 
Q 3116 3994 3184 3459 
z
M 888 1484 
Q 888 1194 1011 928 
Q 1134 663 1356 523 
Q 1578 384 1822 384 
Q 2178 384 2434 671 
Q 2691 959 2691 1453 
Q 2691 1928 2437 2201 
Q 2184 2475 1800 2475 
Q 1419 2475 1153 2201 
Q 888 1928 888 1484 
z
" id="ArialMT-36" transform="scale(0.015625)"/>
       </defs>
       <use xlink:href="#ArialMT-36"/>
       <use x="55.615234" xlink:href="#ArialMT-30"/>
       <use x="111.230469" xlink:href="#ArialMT-30"/>
       <use x="166.845703" xlink:href="#ArialMT-30"/>
      </g>
     </g>
    </g>
    <g id="ytick_5">
     <g id="line2d_5">
      <path clip-path="url(#pa5a2da8c1e)" d="M 135 210.385975 
L 972 210.385975 
" style="fill:none;stroke:#808080;stroke-linecap:round;stroke-width:0.5;"/>
     </g>
     <g id="text_6">
      <!-- 8000 -->
      <g style="fill:#262626;" transform="translate(105.75625 213.964881)scale(0.1 -0.1)">
       <defs>
        <path d="M 1131 2484 
Q 781 2613 612 2850 
Q 444 3088 444 3419 
Q 444 3919 803 4259 
Q 1163 4600 1759 4600 
Q 2359 4600 2725 4251 
Q 3091 3903 3091 3403 
Q 3091 3084 2923 2848 
Q 2756 2613 2416 2484 
Q 2838 2347 3058 2040 
Q 3278 1734 3278 1309 
Q 3278 722 2862 322 
Q 2447 -78 1769 -78 
Q 1091 -78 675 323 
Q 259 725 259 1325 
Q 259 1772 486 2073 
Q 713 2375 1131 2484 
z
M 1019 3438 
Q 1019 3113 1228 2906 
Q 1438 2700 1772 2700 
Q 2097 2700 2305 2904 
Q 2513 3109 2513 3406 
Q 2513 3716 2298 3927 
Q 2084 4138 1766 4138 
Q 1444 4138 1231 3931 
Q 1019 3725 1019 3438 
z
M 838 1322 
Q 838 1081 952 856 
Q 1066 631 1291 507 
Q 1516 384 1775 384 
Q 2178 384 2440 643 
Q 2703 903 2703 1303 
Q 2703 1709 2433 1975 
Q 2163 2241 1756 2241 
Q 1359 2241 1098 1978 
Q 838 1716 838 1322 
z
" id="ArialMT-38" transform="scale(0.015625)"/>
       </defs>
       <use xlink:href="#ArialMT-38"/>
       <use x="55.615234" xlink:href="#ArialMT-30"/>
       <use x="111.230469" xlink:href="#ArialMT-30"/>
       <use x="166.845703" xlink:href="#ArialMT-30"/>
      </g>
     </g>
    </g>
    <g id="ytick_6">
     <g id="line2d_6">
      <path clip-path="url(#pa5a2da8c1e)" d="M 135 134.822469 
L 972 134.822469 
" style="fill:none;stroke:#808080;stroke-linecap:round;stroke-width:0.5;"/>
     </g>
     <g id="text_7">
      <!-- 10000 -->
      <g style="fill:#262626;" transform="translate(100.195312 138.401375)scale(0.1 -0.1)">
       <defs>
        <path d="M 2384 0 
L 1822 0 
L 1822 3584 
Q 1619 3391 1289 3197 
Q 959 3003 697 2906 
L 697 3450 
Q 1169 3672 1522 3987 
Q 1875 4303 2022 4600 
L 2384 4600 
L 2384 0 
z
" id="ArialMT-31" transform="scale(0.015625)"/>
       </defs>
       <use xlink:href="#ArialMT-31"/>
       <use x="55.615234" xlink:href="#ArialMT-30"/>
       <use x="111.230469" xlink:href="#ArialMT-30"/>
       <use x="166.845703" xlink:href="#ArialMT-30"/>
       <use x="222.460938" xlink:href="#ArialMT-30"/>
      </g>
     </g>
    </g>
    <g id="text_8">
     <!-- Tweets -->
     <g style="fill:#262626;" transform="translate(94.207813 306.719844)rotate(-90)scale(0.1 -0.1)">
      <defs>
       <path d="M 1659 0 
L 1659 4041 
L 150 4041 
L 150 4581 
L 3781 4581 
L 3781 4041 
L 2266 4041 
L 2266 0 
L 1659 0 
z
" id="ArialMT-54" transform="scale(0.015625)"/>
       <path d="M 1034 0 
L 19 3319 
L 600 3319 
L 1128 1403 
L 1325 691 
Q 1338 744 1497 1375 
L 2025 3319 
L 2603 3319 
L 3100 1394 
L 3266 759 
L 3456 1400 
L 4025 3319 
L 4572 3319 
L 3534 0 
L 2950 0 
L 2422 1988 
L 2294 2553 
L 1622 0 
L 1034 0 
z
" id="ArialMT-77" transform="scale(0.015625)"/>
       <path d="M 2694 1069 
L 3275 997 
Q 3138 488 2766 206 
Q 2394 -75 1816 -75 
Q 1088 -75 661 373 
Q 234 822 234 1631 
Q 234 2469 665 2931 
Q 1097 3394 1784 3394 
Q 2450 3394 2872 2941 
Q 3294 2488 3294 1666 
Q 3294 1616 3291 1516 
L 816 1516 
Q 847 969 1125 678 
Q 1403 388 1819 388 
Q 2128 388 2347 550 
Q 2566 713 2694 1069 
z
M 847 1978 
L 2700 1978 
Q 2663 2397 2488 2606 
Q 2219 2931 1791 2931 
Q 1403 2931 1139 2672 
Q 875 2413 847 1978 
z
" id="ArialMT-65" transform="scale(0.015625)"/>
       <path d="M 1650 503 
L 1731 6 
Q 1494 -44 1306 -44 
Q 1000 -44 831 53 
Q 663 150 594 308 
Q 525 466 525 972 
L 525 2881 
L 113 2881 
L 113 3319 
L 525 3319 
L 525 4141 
L 1084 4478 
L 1084 3319 
L 1650 3319 
L 1650 2881 
L 1084 2881 
L 1084 941 
Q 1084 700 1114 631 
Q 1144 563 1211 522 
Q 1278 481 1403 481 
Q 1497 481 1650 503 
z
" id="ArialMT-74" transform="scale(0.015625)"/>
      </defs>
      <use xlink:href="#ArialMT-54"/>
      <use x="55.583984" xlink:href="#ArialMT-77"/>
      <use x="127.800781" xlink:href="#ArialMT-65"/>
      <use x="183.416016" xlink:href="#ArialMT-65"/>
      <use x="239.03125" xlink:href="#ArialMT-74"/>
      <use x="266.814453" xlink:href="#ArialMT-73"/>
     </g>
    </g>
   </g>
   <g id="patch_3">
    <path clip-path="url(#pa5a2da8c1e)" d="M 132.9075 512.64 
L 137.0925 512.64 
L 137.0925 486.117209 
L 132.9075 486.117209 
z
" style="fill:#4682b4;stroke:#ffffff;stroke-linejoin:miter;"/>
   </g>
   <g id="patch_4">
    <path clip-path="url(#pa5a2da8c1e)" d="M 138.13875 512.64 
L 142.32375 512.64 
L 142.32375 498.056243 
L 138.13875 498.056243 
z
" style="fill:#4682b4;stroke:#ffffff;stroke-linejoin:miter;"/>
   </g>
   <g id="patch_5">
    <path clip-path="url(#pa5a2da8c1e)" d="M 143.37 512.64 
L 147.555 512.64 
L 147.555 494.580322 
L 143.37 494.580322 
z
" style="fill:#4682b4;stroke:#ffffff;stroke-linejoin:miter;"/>
   </g>
   <g id="patch_6">
    <path clip-path="url(#pa5a2da8c1e)" d="M 148.60125 512.64 
L 152.78625 512.64 
L 152.78625 501.078784 
L 148.60125 501.078784 
z
" style="fill:#4682b4;stroke:#ffffff;stroke-linejoin:miter;"/>
   </g>
   <g id="patch_7">
    <path clip-path="url(#pa5a2da8c1e)" d="M 153.8325 512.64 
L 158.0175 512.64 
L 158.0175 500.172021 
L 153.8325 500.172021 
z
" style="fill:#4682b4;stroke:#ffffff;stroke-linejoin:miter;"/>
   </g>
   <g id="patch_8">
    <path clip-path="url(#pa5a2da8c1e)" d="M 159.06375 512.64 
L 163.24875 512.64 
L 163.24875 501.267692 
L 159.06375 501.267692 
z
" style="fill:#4682b4;stroke:#ffffff;stroke-linejoin:miter;"/>
   </g>
   <g id="patch_9">
    <path clip-path="url(#pa5a2da8c1e)" d="M 164.295 512.64 
L 168.48 512.64 
L 168.48 503.232343 
L 164.295 503.232343 
z
" style="fill:#4682b4;stroke:#ffffff;stroke-linejoin:miter;"/>
   </g>
   <g id="patch_10">
    <path clip-path="url(#pa5a2da8c1e)" d="M 169.52625 512.64 
L 173.71125 512.64 
L 173.71125 503.685725 
L 169.52625 503.685725 
z
" style="fill:#4682b4;stroke:#ffffff;stroke-linejoin:miter;"/>
   </g>
   <g id="patch_11">
    <path clip-path="url(#pa5a2da8c1e)" d="M 174.7575 512.64 
L 178.9425 512.64 
L 178.9425 504.894741 
L 174.7575 504.894741 
z
" style="fill:#4682b4;stroke:#ffffff;stroke-linejoin:miter;"/>
   </g>
   <g id="patch_12">
    <path clip-path="url(#pa5a2da8c1e)" d="M 179.98875 512.64 
L 184.17375 512.64 
L 184.17375 507.123864 
L 179.98875 507.123864 
z
" style="fill:#4682b4;stroke:#ffffff;stroke-linejoin:miter;"/>
   </g>
   <g id="patch_13">
    <path clip-path="url(#pa5a2da8c1e)" d="M 185.22 512.64 
L 189.405 512.64 
L 189.405 505.234776 
L 185.22 505.234776 
z
" style="fill:#4682b4;stroke:#ffffff;stroke-linejoin:miter;"/>
   </g>
   <g id="patch_14">
    <path clip-path="url(#pa5a2da8c1e)" d="M 190.45125 512.64 
L 194.63625 512.64 
L 194.63625 497.489517 
L 190.45125 497.489517 
z
" style="fill:#4682b4;stroke:#ffffff;stroke-linejoin:miter;"/>
   </g>
   <g id="patch_15">
    <path clip-path="url(#pa5a2da8c1e)" d="M 195.6825 512.64 
L 199.8675 512.64 
L 199.8675 443.310483 
L 195.6825 443.310483 
z
" style="fill:#4682b4;stroke:#ffffff;stroke-linejoin:miter;"/>
   </g>
   <g id="patch_16">
    <path clip-path="url(#pa5a2da8c1e)" d="M 200.91375 512.64 
L 205.09875 512.64 
L 205.09875 327.660537 
L 200.91375 327.660537 
z
" style="fill:#4682b4;stroke:#ffffff;stroke-linejoin:miter;"/>
   </g>
   <g id="patch_17">
    <path clip-path="url(#pa5a2da8c1e)" d="M 206.145 512.64 
L 210.33 512.64 
L 210.33 358.528229 
L 206.145 358.528229 
z
" style="fill:#4682b4;stroke:#ffffff;stroke-linejoin:miter;"/>
   </g>
   <g id="patch_18">
    <path clip-path="url(#pa5a2da8c1e)" d="M 211.37625 512.64 
L 215.56125 512.64 
L 215.56125 410.667048 
L 211.37625 410.667048 
z
" style="fill:#4682b4;stroke:#ffffff;stroke-linejoin:miter;"/>
   </g>
   <g id="patch_19">
    <path clip-path="url(#pa5a2da8c1e)" d="M 216.6075 512.64 
L 220.7925 512.64 
L 220.7925 414.331878 
L 216.6075 414.331878 
z
" style="fill:#4682b4;stroke:#ffffff;stroke-linejoin:miter;"/>
   </g>
   <g id="patch_20">
    <path clip-path="url(#pa5a2da8c1e)" d="M 221.83875 512.64 
L 226.02375 512.64 
L 226.02375 389.547048 
L 221.83875 389.547048 
z
" style="fill:#4682b4;stroke:#ffffff;stroke-linejoin:miter;"/>
   </g>
   <g id="patch_21">
    <path clip-path="url(#pa5a2da8c1e)" d="M 227.07 512.64 
L 231.255 512.64 
L 231.255 361.512987 
L 227.07 361.512987 
z
" style="fill:#4682b4;stroke:#ffffff;stroke-linejoin:miter;"/>
   </g>
   <g id="patch_22">
    <path clip-path="url(#pa5a2da8c1e)" d="M 232.30125 512.64 
L 236.48625 512.64 
L 236.48625 359.170519 
L 232.30125 359.170519 
z
" style="fill:#4682b4;stroke:#ffffff;stroke-linejoin:miter;"/>
   </g>
   <g id="patch_23">
    <path clip-path="url(#pa5a2da8c1e)" d="M 237.5325 512.64 
L 241.7175 512.64 
L 241.7175 282.813596 
L 237.5325 282.813596 
z
" style="fill:#4682b4;stroke:#ffffff;stroke-linejoin:miter;"/>
   </g>
   <g id="patch_24">
    <path clip-path="url(#pa5a2da8c1e)" d="M 242.76375 512.64 
L 246.94875 512.64 
L 246.94875 90.24 
L 242.76375 90.24 
z
" style="fill:#4682b4;stroke:#ffffff;stroke-linejoin:miter;"/>
   </g>
   <g id="patch_25">
    <path clip-path="url(#pa5a2da8c1e)" d="M 247.995 512.64 
L 252.18 512.64 
L 252.18 246.354204 
L 247.995 246.354204 
z
" style="fill:#4682b4;stroke:#ffffff;stroke-linejoin:miter;"/>
   </g>
   <g id="patch_26">
    <path clip-path="url(#pa5a2da8c1e)" d="M 253.22625 512.64 
L 257.41125 512.64 
L 257.41125 228.030054 
L 253.22625 228.030054 
z
" style="fill:#4682b4;stroke:#ffffff;stroke-linejoin:miter;"/>
   </g>
   <g id="patch_27">
    <path clip-path="url(#pa5a2da8c1e)" d="M 258.4575 512.64 
L 262.6425 512.64 
L 262.6425 282.624687 
L 258.4575 282.624687 
z
" style="fill:#4682b4;stroke:#ffffff;stroke-linejoin:miter;"/>
   </g>
   <g id="patch_28">
    <path clip-path="url(#pa5a2da8c1e)" d="M 263.68875 512.64 
L 267.87375 512.64 
L 267.87375 306.351628 
L 263.68875 306.351628 
z
" style="fill:#4682b4;stroke:#ffffff;stroke-linejoin:miter;"/>
   </g>
   <g id="patch_29">
    <path clip-path="url(#pa5a2da8c1e)" d="M 268.92 512.64 
L 273.105 512.64 
L 273.105 312.925653 
L 268.92 312.925653 
z
" style="fill:#4682b4;stroke:#ffffff;stroke-linejoin:miter;"/>
   </g>
   <g id="patch_30">
    <path clip-path="url(#pa5a2da8c1e)" d="M 274.15125 512.64 
L 278.33625 512.64 
L 278.33625 345.040143 
L 274.15125 345.040143 
z
" style="fill:#4682b4;stroke:#ffffff;stroke-linejoin:miter;"/>
   </g>
   <g id="patch_31">
    <path clip-path="url(#pa5a2da8c1e)" d="M 279.3825 512.64 
L 283.5675 512.64 
L 283.5675 352.143113 
L 279.3825 352.143113 
z
" style="fill:#4682b4;stroke:#ffffff;stroke-linejoin:miter;"/>
   </g>
   <g id="patch_32">
    <path clip-path="url(#pa5a2da8c1e)" d="M 284.61375 512.64 
L 288.79875 512.64 
L 288.79875 391.398354 
L 284.61375 391.398354 
z
" style="fill:#4682b4;stroke:#ffffff;stroke-linejoin:miter;"/>
   </g>
   <g id="patch_33">
    <path clip-path="url(#pa5a2da8c1e)" d="M 289.845 512.64 
L 294.03 512.64 
L 294.03 411.611592 
L 289.845 411.611592 
z
" style="fill:#4682b4;stroke:#ffffff;stroke-linejoin:miter;"/>
   </g>
   <g id="patch_34">
    <path clip-path="url(#pa5a2da8c1e)" d="M 295.07625 512.64 
L 299.26125 512.64 
L 299.26125 428.386691 
L 295.07625 428.386691 
z
" style="fill:#87cefa;stroke:#ffffff;stroke-linejoin:miter;"/>
   </g>
   <g id="patch_35">
    <path clip-path="url(#pa5a2da8c1e)" d="M 300.3075 512.64 
L 304.4925 512.64 
L 304.4925 420.943685 
L 300.3075 420.943685 
z
" style="fill:#87cefa;stroke:#ffffff;stroke-linejoin:miter;"/>
   </g>
   <g id="patch_36">
    <path clip-path="url(#pa5a2da8c1e)" d="M 305.53875 512.64 
L 309.72375 512.64 
L 309.72375 400.654884 
L 305.53875 400.654884 
z
" style="fill:#87cefa;stroke:#ffffff;stroke-linejoin:miter;"/>
   </g>
   <g id="patch_37">
    <path clip-path="url(#pa5a2da8c1e)" d="M 310.77 512.64 
L 314.955 512.64 
L 314.955 368.502612 
L 310.77 368.502612 
z
" style="fill:#87cefa;stroke:#ffffff;stroke-linejoin:miter;"/>
   </g>
   <g id="patch_38">
    <path clip-path="url(#pa5a2da8c1e)" d="M 316.00125 512.64 
L 320.18625 512.64 
L 320.18625 252.852665 
L 316.00125 252.852665 
z
" style="fill:#87cefa;stroke:#ffffff;stroke-linejoin:miter;"/>
   </g>
   <g id="patch_39">
    <path clip-path="url(#pa5a2da8c1e)" d="M 321.2325 512.64 
L 325.4175 512.64 
L 325.4175 182.465259 
L 321.2325 182.465259 
z
" style="fill:#87cefa;stroke:#ffffff;stroke-linejoin:miter;"/>
   </g>
   <g id="patch_40">
    <path clip-path="url(#pa5a2da8c1e)" d="M 326.46375 512.64 
L 330.64875 512.64 
L 330.64875 275.37059 
L 326.46375 275.37059 
z
" style="fill:#87cefa;stroke:#ffffff;stroke-linejoin:miter;"/>
   </g>
   <g id="patch_41">
    <path clip-path="url(#pa5a2da8c1e)" d="M 331.695 512.64 
L 335.88 512.64 
L 335.88 327.018247 
L 331.695 327.018247 
z
" style="fill:#87cefa;stroke:#ffffff;stroke-linejoin:miter;"/>
   </g>
   <g id="patch_42">
    <path clip-path="url(#pa5a2da8c1e)" d="M 336.92625 512.64 
L 341.11125 512.64 
L 341.11125 275.937317 
L 336.92625 275.937317 
z
" style="fill:#87cefa;stroke:#ffffff;stroke-linejoin:miter;"/>
   </g>
   <g id="patch_43">
    <path clip-path="url(#pa5a2da8c1e)" d="M 342.1575 512.64 
L 346.3425 512.64 
L 346.3425 328.076136 
L 342.1575 328.076136 
z
" style="fill:#87cefa;stroke:#ffffff;stroke-linejoin:miter;"/>
   </g>
   <g id="patch_44">
    <path clip-path="url(#pa5a2da8c1e)" d="M 347.38875 512.64 
L 351.57375 512.64 
L 351.57375 336.274776 
L 347.38875 336.274776 
z
" style="fill:#87cefa;stroke:#ffffff;stroke-linejoin:miter;"/>
   </g>
   <g id="patch_45">
    <path clip-path="url(#pa5a2da8c1e)" d="M 352.62 512.64 
L 356.805 512.64 
L 356.805 365.328945 
L 352.62 365.328945 
z
" style="fill:#87cefa;stroke:#ffffff;stroke-linejoin:miter;"/>
   </g>
   <g id="patch_46">
    <path clip-path="url(#pa5a2da8c1e)" d="M 357.85125 512.64 
L 362.03625 512.64 
L 362.03625 383.993131 
L 357.85125 383.993131 
z
" style="fill:#87cefa;stroke:#ffffff;stroke-linejoin:miter;"/>
   </g>
   <g id="patch_47">
    <path clip-path="url(#pa5a2da8c1e)" d="M 363.0825 512.64 
L 367.2675 512.64 
L 367.2675 386.297818 
L 363.0825 386.297818 
z
" style="fill:#87cefa;stroke:#ffffff;stroke-linejoin:miter;"/>
   </g>
   <g id="patch_48">
    <path clip-path="url(#pa5a2da8c1e)" d="M 368.31375 512.64 
L 372.49875 512.64 
L 372.49875 428.877853 
L 368.31375 428.877853 
z
" style="fill:#87cefa;stroke:#ffffff;stroke-linejoin:miter;"/>
   </g>
   <g id="patch_49">
    <path clip-path="url(#pa5a2da8c1e)" d="M 373.545 512.64 
L 377.73 512.64 
L 377.73 417.694454 
L 373.545 417.694454 
z
" style="fill:#87cefa;stroke:#ffffff;stroke-linejoin:miter;"/>
   </g>
   <g id="patch_50">
    <path clip-path="url(#pa5a2da8c1e)" d="M 378.77625 512.64 
L 382.96125 512.64 
L 382.96125 433.751699 
L 378.77625 433.751699 
z
" style="fill:#87cefa;stroke:#ffffff;stroke-linejoin:miter;"/>
   </g>
   <g id="patch_51">
    <path clip-path="url(#pa5a2da8c1e)" d="M 384.0075 512.64 
L 388.1925 512.64 
L 388.1925 426.535385 
L 384.0075 426.535385 
z
" style="fill:#87cefa;stroke:#ffffff;stroke-linejoin:miter;"/>
   </g>
   <g id="patch_52">
    <path clip-path="url(#pa5a2da8c1e)" d="M 389.23875 512.64 
L 393.42375 512.64 
L 393.42375 429.860179 
L 389.23875 429.860179 
z
" style="fill:#87cefa;stroke:#ffffff;stroke-linejoin:miter;"/>
   </g>
   <g id="patch_53">
    <path clip-path="url(#pa5a2da8c1e)" d="M 394.47 512.64 
L 398.655 512.64 
L 398.655 437.152057 
L 394.47 437.152057 
z
" style="fill:#87cefa;stroke:#ffffff;stroke-linejoin:miter;"/>
   </g>
   <g id="patch_54">
    <path clip-path="url(#pa5a2da8c1e)" d="M 399.70125 512.64 
L 403.88625 512.64 
L 403.88625 443.121574 
L 399.70125 443.121574 
z
" style="fill:#87cefa;stroke:#ffffff;stroke-linejoin:miter;"/>
   </g>
   <g id="patch_55">
    <path clip-path="url(#pa5a2da8c1e)" d="M 404.9325 512.64 
L 409.1175 512.64 
L 409.1175 428.537818 
L 404.9325 428.537818 
z
" style="fill:#87cefa;stroke:#ffffff;stroke-linejoin:miter;"/>
   </g>
   <g id="patch_56">
    <path clip-path="url(#pa5a2da8c1e)" d="M 410.16375 512.64 
L 414.34875 512.64 
L 414.34875 433.411664 
L 410.16375 433.411664 
z
" style="fill:#87cefa;stroke:#ffffff;stroke-linejoin:miter;"/>
   </g>
   <g id="patch_57">
    <path clip-path="url(#pa5a2da8c1e)" d="M 415.395 512.64 
L 419.58 512.64 
L 419.58 427.895528 
L 415.395 427.895528 
z
" style="fill:#87cefa;stroke:#ffffff;stroke-linejoin:miter;"/>
   </g>
   <g id="patch_58">
    <path clip-path="url(#pa5a2da8c1e)" d="M 420.62625 512.64 
L 424.81125 512.64 
L 424.81125 412.253882 
L 420.62625 412.253882 
z
" style="fill:#87cefa;stroke:#ffffff;stroke-linejoin:miter;"/>
   </g>
   <g id="patch_59">
    <path clip-path="url(#pa5a2da8c1e)" d="M 425.8575 512.64 
L 430.0425 512.64 
L 430.0425 430.237996 
L 425.8575 430.237996 
z
" style="fill:#87cefa;stroke:#ffffff;stroke-linejoin:miter;"/>
   </g>
   <g id="patch_60">
    <path clip-path="url(#pa5a2da8c1e)" d="M 431.08875 512.64 
L 435.27375 512.64 
L 435.27375 435.48966 
L 431.08875 435.48966 
z
" style="fill:#87cefa;stroke:#ffffff;stroke-linejoin:miter;"/>
   </g>
   <g id="patch_61">
    <path clip-path="url(#pa5a2da8c1e)" d="M 436.32 512.64 
L 440.505 512.64 
L 440.505 422.832773 
L 436.32 422.832773 
z
" style="fill:#87cefa;stroke:#ffffff;stroke-linejoin:miter;"/>
   </g>
   <g id="patch_62">
    <path clip-path="url(#pa5a2da8c1e)" d="M 441.55125 512.64 
L 445.73625 512.64 
L 445.73625 424.684079 
L 441.55125 424.684079 
z
" style="fill:#87cefa;stroke:#ffffff;stroke-linejoin:miter;"/>
   </g>
   <g id="patch_63">
    <path clip-path="url(#pa5a2da8c1e)" d="M 446.7825 512.64 
L 450.9675 512.64 
L 450.9675 411.271556 
L 446.7825 411.271556 
z
" style="fill:#87cefa;stroke:#ffffff;stroke-linejoin:miter;"/>
   </g>
   <g id="patch_64">
    <path clip-path="url(#pa5a2da8c1e)" d="M 452.01375 512.64 
L 456.19875 512.64 
L 456.19875 382.028479 
L 452.01375 382.028479 
z
" style="fill:#87cefa;stroke:#ffffff;stroke-linejoin:miter;"/>
   </g>
   <g id="patch_65">
    <path clip-path="url(#pa5a2da8c1e)" d="M 457.245 512.64 
L 461.43 512.64 
L 461.43 304.46254 
L 457.245 304.46254 
z
" style="fill:#87ceeb;stroke:#ffffff;stroke-linejoin:miter;"/>
   </g>
   <g id="patch_66">
    <path clip-path="url(#pa5a2da8c1e)" d="M 462.47625 512.64 
L 466.66125 512.64 
L 466.66125 333.214454 
L 462.47625 333.214454 
z
" style="fill:#87ceeb;stroke:#ffffff;stroke-linejoin:miter;"/>
   </g>
   <g id="patch_67">
    <path clip-path="url(#pa5a2da8c1e)" d="M 467.7075 512.64 
L 471.8925 512.64 
L 471.8925 408.437925 
L 467.7075 408.437925 
z
" style="fill:#87ceeb;stroke:#ffffff;stroke-linejoin:miter;"/>
   </g>
   <g id="patch_68">
    <path clip-path="url(#pa5a2da8c1e)" d="M 472.93875 512.64 
L 477.12375 512.64 
L 477.12375 422.757209 
L 472.93875 422.757209 
z
" style="fill:#87ceeb;stroke:#ffffff;stroke-linejoin:miter;"/>
   </g>
   <g id="patch_69">
    <path clip-path="url(#pa5a2da8c1e)" d="M 478.17 512.64 
L 482.355 512.64 
L 482.355 432.164866 
L 478.17 432.164866 
z
" style="fill:#87ceeb;stroke:#ffffff;stroke-linejoin:miter;"/>
   </g>
   <g id="patch_70">
    <path clip-path="url(#pa5a2da8c1e)" d="M 483.40125 512.64 
L 487.58625 512.64 
L 487.58625 389.887084 
L 483.40125 389.887084 
z
" style="fill:#87ceeb;stroke:#ffffff;stroke-linejoin:miter;"/>
   </g>
   <g id="patch_71">
    <path clip-path="url(#pa5a2da8c1e)" d="M 488.6325 512.64 
L 492.8175 512.64 
L 492.8175 318.063971 
L 488.6325 318.063971 
z
" style="fill:#87ceeb;stroke:#ffffff;stroke-linejoin:miter;"/>
   </g>
   <g id="patch_72">
    <path clip-path="url(#pa5a2da8c1e)" d="M 493.86375 512.64 
L 498.04875 512.64 
L 498.04875 345.002361 
L 493.86375 345.002361 
z
" style="fill:#87ceeb;stroke:#ffffff;stroke-linejoin:miter;"/>
   </g>
   <g id="patch_73">
    <path clip-path="url(#pa5a2da8c1e)" d="M 499.095 512.64 
L 503.28 512.64 
L 503.28 347.155921 
L 499.095 347.155921 
z
" style="fill:#87ceeb;stroke:#ffffff;stroke-linejoin:miter;"/>
   </g>
   <g id="patch_74">
    <path clip-path="url(#pa5a2da8c1e)" d="M 504.32625 512.64 
L 508.51125 512.64 
L 508.51125 374.963292 
L 504.32625 374.963292 
z
" style="fill:#87ceeb;stroke:#ffffff;stroke-linejoin:miter;"/>
   </g>
   <g id="patch_75">
    <path clip-path="url(#pa5a2da8c1e)" d="M 509.5575 512.64 
L 513.7425 512.64 
L 513.7425 426.422039 
L 509.5575 426.422039 
z
" style="fill:#87ceeb;stroke:#ffffff;stroke-linejoin:miter;"/>
   </g>
   <g id="patch_76">
    <path clip-path="url(#pa5a2da8c1e)" d="M 514.78875 512.64 
L 518.97375 512.64 
L 518.97375 421.510411 
L 514.78875 421.510411 
z
" style="fill:#87ceeb;stroke:#ffffff;stroke-linejoin:miter;"/>
   </g>
   <g id="patch_77">
    <path clip-path="url(#pa5a2da8c1e)" d="M 520.02 512.64 
L 524.205 512.64 
L 524.205 380.366082 
L 520.02 380.366082 
z
" style="fill:#87ceeb;stroke:#ffffff;stroke-linejoin:miter;"/>
   </g>
   <g id="patch_78">
    <path clip-path="url(#pa5a2da8c1e)" d="M 525.25125 512.64 
L 529.43625 512.64 
L 529.43625 392.229553 
L 525.25125 392.229553 
z
" style="fill:#87ceeb;stroke:#ffffff;stroke-linejoin:miter;"/>
   </g>
   <g id="patch_79">
    <path clip-path="url(#pa5a2da8c1e)" d="M 530.4825 512.64 
L 534.6675 512.64 
L 534.6675 331.136458 
L 530.4825 331.136458 
z
" style="fill:#87ceeb;stroke:#ffffff;stroke-linejoin:miter;"/>
   </g>
   <g id="patch_80">
    <path clip-path="url(#pa5a2da8c1e)" d="M 535.71375 512.64 
L 539.89875 512.64 
L 539.89875 323.655671 
L 535.71375 323.655671 
z
" style="fill:#87ceeb;stroke:#ffffff;stroke-linejoin:miter;"/>
   </g>
   <g id="patch_81">
    <path clip-path="url(#pa5a2da8c1e)" d="M 540.945 512.64 
L 545.13 512.64 
L 545.13 283.153631 
L 540.945 283.153631 
z
" style="fill:#87ceeb;stroke:#ffffff;stroke-linejoin:miter;"/>
   </g>
   <g id="patch_82">
    <path clip-path="url(#pa5a2da8c1e)" d="M 546.17625 512.64 
L 550.36125 512.64 
L 550.36125 365.328945 
L 546.17625 365.328945 
z
" style="fill:#87ceeb;stroke:#ffffff;stroke-linejoin:miter;"/>
   </g>
   <g id="patch_83">
    <path clip-path="url(#pa5a2da8c1e)" d="M 551.4075 512.64 
L 555.5925 512.64 
L 555.5925 384.673202 
L 551.4075 384.673202 
z
" style="fill:#87ceeb;stroke:#ffffff;stroke-linejoin:miter;"/>
   </g>
   <g id="patch_84">
    <path clip-path="url(#pa5a2da8c1e)" d="M 556.63875 512.64 
L 560.82375 512.64 
L 560.82375 366.009016 
L 556.63875 366.009016 
z
" style="fill:#87ceeb;stroke:#ffffff;stroke-linejoin:miter;"/>
   </g>
   <g id="patch_85">
    <path clip-path="url(#pa5a2da8c1e)" d="M 561.87 512.64 
L 566.055 512.64 
L 566.055 366.462397 
L 561.87 366.462397 
z
" style="fill:#87ceeb;stroke:#ffffff;stroke-linejoin:miter;"/>
   </g>
   <g id="patch_86">
    <path clip-path="url(#pa5a2da8c1e)" d="M 567.10125 512.64 
L 571.28625 512.64 
L 571.28625 330.947549 
L 567.10125 330.947549 
z
" style="fill:#87ceeb;stroke:#ffffff;stroke-linejoin:miter;"/>
   </g>
   <g id="patch_87">
    <path clip-path="url(#pa5a2da8c1e)" d="M 572.3325 512.64 
L 576.5175 512.64 
L 576.5175 383.728658 
L 572.3325 383.728658 
z
" style="fill:#87ceeb;stroke:#ffffff;stroke-linejoin:miter;"/>
   </g>
   <g id="patch_88">
    <path clip-path="url(#pa5a2da8c1e)" d="M 577.56375 512.64 
L 581.74875 512.64 
L 581.74875 415.918712 
L 577.56375 415.918712 
z
" style="fill:#87ceeb;stroke:#ffffff;stroke-linejoin:miter;"/>
   </g>
   <g id="patch_89">
    <path clip-path="url(#pa5a2da8c1e)" d="M 582.795 512.64 
L 586.98 512.64 
L 586.98 403.412952 
L 582.795 403.412952 
z
" style="fill:#87ceeb;stroke:#ffffff;stroke-linejoin:miter;"/>
   </g>
   <g id="patch_90">
    <path clip-path="url(#pa5a2da8c1e)" d="M 588.02625 512.64 
L 592.21125 512.64 
L 592.21125 414.785259 
L 588.02625 414.785259 
z
" style="fill:#87ceeb;stroke:#ffffff;stroke-linejoin:miter;"/>
   </g>
   <g id="patch_91">
    <path clip-path="url(#pa5a2da8c1e)" d="M 593.2575 512.64 
L 597.4425 512.64 
L 597.4425 404.924222 
L 593.2575 404.924222 
z
" style="fill:#87ceeb;stroke:#ffffff;stroke-linejoin:miter;"/>
   </g>
   <g id="patch_92">
    <path clip-path="url(#pa5a2da8c1e)" d="M 598.48875 512.64 
L 602.67375 512.64 
L 602.67375 431.371449 
L 598.48875 431.371449 
z
" style="fill:#87ceeb;stroke:#ffffff;stroke-linejoin:miter;"/>
   </g>
   <g id="patch_93">
    <path clip-path="url(#pa5a2da8c1e)" d="M 603.72 512.64 
L 607.905 512.64 
L 607.905 433.071628 
L 603.72 433.071628 
z
" style="fill:#87ceeb;stroke:#ffffff;stroke-linejoin:miter;"/>
   </g>
   <g id="patch_94">
    <path clip-path="url(#pa5a2da8c1e)" d="M 608.95125 512.64 
L 613.13625 512.64 
L 613.13625 440.476852 
L 608.95125 440.476852 
z
" style="fill:#87ceeb;stroke:#ffffff;stroke-linejoin:miter;"/>
   </g>
   <g id="patch_95">
    <path clip-path="url(#pa5a2da8c1e)" d="M 614.1825 512.64 
L 618.3675 512.64 
L 618.3675 446.824186 
L 614.1825 446.824186 
z
" style="fill:#add8e6;stroke:#ffffff;stroke-linejoin:miter;"/>
   </g>
   <g id="patch_96">
    <path clip-path="url(#pa5a2da8c1e)" d="M 619.41375 512.64 
L 623.59875 512.64 
L 623.59875 452.642576 
L 619.41375 452.642576 
z
" style="fill:#add8e6;stroke:#ffffff;stroke-linejoin:miter;"/>
   </g>
   <g id="patch_97">
    <path clip-path="url(#pa5a2da8c1e)" d="M 624.645 512.64 
L 628.83 512.64 
L 628.83 455.96737 
L 624.645 455.96737 
z
" style="fill:#add8e6;stroke:#ffffff;stroke-linejoin:miter;"/>
   </g>
   <g id="patch_98">
    <path clip-path="url(#pa5a2da8c1e)" d="M 629.87625 512.64 
L 634.06125 512.64 
L 634.06125 454.342755 
L 629.87625 454.342755 
z
" style="fill:#add8e6;stroke:#ffffff;stroke-linejoin:miter;"/>
   </g>
   <g id="patch_99">
    <path clip-path="url(#pa5a2da8c1e)" d="M 635.1075 512.64 
L 639.2925 512.64 
L 639.2925 443.046011 
L 635.1075 443.046011 
z
" style="fill:#add8e6;stroke:#ffffff;stroke-linejoin:miter;"/>
   </g>
   <g id="patch_100">
    <path clip-path="url(#pa5a2da8c1e)" d="M 640.33875 512.64 
L 644.52375 512.64 
L 644.52375 450.451234 
L 640.33875 450.451234 
z
" style="fill:#add8e6;stroke:#ffffff;stroke-linejoin:miter;"/>
   </g>
   <g id="patch_101">
    <path clip-path="url(#pa5a2da8c1e)" d="M 645.57 512.64 
L 649.755 512.64 
L 649.755 420.263614 
L 645.57 420.263614 
z
" style="fill:#add8e6;stroke:#ffffff;stroke-linejoin:miter;"/>
   </g>
   <g id="patch_102">
    <path clip-path="url(#pa5a2da8c1e)" d="M 650.80125 512.64 
L 654.98625 512.64 
L 654.98625 425.250805 
L 650.80125 425.250805 
z
" style="fill:#add8e6;stroke:#ffffff;stroke-linejoin:miter;"/>
   </g>
   <g id="patch_103">
    <path clip-path="url(#pa5a2da8c1e)" d="M 656.0325 512.64 
L 660.2175 512.64 
L 660.2175 313.190125 
L 656.0325 313.190125 
z
" style="fill:#add8e6;stroke:#ffffff;stroke-linejoin:miter;"/>
   </g>
   <g id="patch_104">
    <path clip-path="url(#pa5a2da8c1e)" d="M 661.26375 512.64 
L 665.44875 512.64 
L 665.44875 320.746476 
L 661.26375 320.746476 
z
" style="fill:#add8e6;stroke:#ffffff;stroke-linejoin:miter;"/>
   </g>
   <g id="patch_105">
    <path clip-path="url(#pa5a2da8c1e)" d="M 666.495 512.64 
L 670.68 512.64 
L 670.68 318.404007 
L 666.495 318.404007 
z
" style="fill:#add8e6;stroke:#ffffff;stroke-linejoin:miter;"/>
   </g>
   <g id="patch_106">
    <path clip-path="url(#pa5a2da8c1e)" d="M 671.72625 512.64 
L 675.91125 512.64 
L 675.91125 279.715492 
L 671.72625 279.715492 
z
" style="fill:#add8e6;stroke:#ffffff;stroke-linejoin:miter;"/>
   </g>
   <g id="patch_107">
    <path clip-path="url(#pa5a2da8c1e)" d="M 676.9575 512.64 
L 681.1425 512.64 
L 681.1425 285.26941 
L 676.9575 285.26941 
z
" style="fill:#add8e6;stroke:#ffffff;stroke-linejoin:miter;"/>
   </g>
   <g id="patch_108">
    <path clip-path="url(#pa5a2da8c1e)" d="M 682.18875 512.64 
L 686.37375 512.64 
L 686.37375 356.941395 
L 682.18875 356.941395 
z
" style="fill:#add8e6;stroke:#ffffff;stroke-linejoin:miter;"/>
   </g>
   <g id="patch_109">
    <path clip-path="url(#pa5a2da8c1e)" d="M 687.42 512.64 
L 691.605 512.64 
L 691.605 316.212665 
L 687.42 316.212665 
z
" style="fill:#add8e6;stroke:#ffffff;stroke-linejoin:miter;"/>
   </g>
   <g id="patch_110">
    <path clip-path="url(#pa5a2da8c1e)" d="M 692.65125 512.64 
L 696.83625 512.64 
L 696.83625 361.853023 
L 692.65125 361.853023 
z
" style="fill:#add8e6;stroke:#ffffff;stroke-linejoin:miter;"/>
   </g>
   <g id="patch_111">
    <path clip-path="url(#pa5a2da8c1e)" d="M 697.8825 512.64 
L 702.0675 512.64 
L 702.0675 388.035778 
L 697.8825 388.035778 
z
" style="fill:#add8e6;stroke:#ffffff;stroke-linejoin:miter;"/>
   </g>
   <g id="patch_112">
    <path clip-path="url(#pa5a2da8c1e)" d="M 703.11375 512.64 
L 707.29875 512.64 
L 707.29875 383.237496 
L 703.11375 383.237496 
z
" style="fill:#add8e6;stroke:#ffffff;stroke-linejoin:miter;"/>
   </g>
   <g id="patch_113">
    <path clip-path="url(#pa5a2da8c1e)" d="M 708.345 512.64 
L 712.53 512.64 
L 712.53 413.614025 
L 708.345 413.614025 
z
" style="fill:#add8e6;stroke:#ffffff;stroke-linejoin:miter;"/>
   </g>
   <g id="patch_114">
    <path clip-path="url(#pa5a2da8c1e)" d="M 713.57625 512.64 
L 717.76125 512.64 
L 717.76125 395.100966 
L 713.57625 395.100966 
z
" style="fill:#add8e6;stroke:#ffffff;stroke-linejoin:miter;"/>
   </g>
   <g id="patch_115">
    <path clip-path="url(#pa5a2da8c1e)" d="M 718.8075 512.64 
L 722.9925 512.64 
L 722.9925 412.896172 
L 718.8075 412.896172 
z
" style="fill:#add8e6;stroke:#ffffff;stroke-linejoin:miter;"/>
   </g>
   <g id="patch_116">
    <path clip-path="url(#pa5a2da8c1e)" d="M 724.03875 512.64 
L 728.22375 512.64 
L 728.22375 412.933953 
L 724.03875 412.933953 
z
" style="fill:#add8e6;stroke:#ffffff;stroke-linejoin:miter;"/>
   </g>
   <g id="patch_117">
    <path clip-path="url(#pa5a2da8c1e)" d="M 729.27 512.64 
L 733.455 512.64 
L 733.455 436.812021 
L 729.27 436.812021 
z
" style="fill:#add8e6;stroke:#ffffff;stroke-linejoin:miter;"/>
   </g>
   <g id="patch_118">
    <path clip-path="url(#pa5a2da8c1e)" d="M 734.50125 512.64 
L 738.68625 512.64 
L 738.68625 449.884508 
L 734.50125 449.884508 
z
" style="fill:#add8e6;stroke:#ffffff;stroke-linejoin:miter;"/>
   </g>
   <g id="patch_119">
    <path clip-path="url(#pa5a2da8c1e)" d="M 739.7325 512.64 
L 743.9175 512.64 
L 743.9175 435.829696 
L 739.7325 435.829696 
z
" style="fill:#add8e6;stroke:#ffffff;stroke-linejoin:miter;"/>
   </g>
   <g id="patch_120">
    <path clip-path="url(#pa5a2da8c1e)" d="M 744.96375 512.64 
L 749.14875 512.64 
L 749.14875 425.817531 
L 744.96375 425.817531 
z
" style="fill:#b0e0e6;stroke:#ffffff;stroke-linejoin:miter;"/>
   </g>
   <g id="patch_121">
    <path clip-path="url(#pa5a2da8c1e)" d="M 750.195 512.64 
L 754.38 512.64 
L 754.38 418.979034 
L 750.195 418.979034 
z
" style="fill:#b0e0e6;stroke:#ffffff;stroke-linejoin:miter;"/>
   </g>
   <g id="patch_122">
    <path clip-path="url(#pa5a2da8c1e)" d="M 755.42625 512.64 
L 759.61125 512.64 
L 759.61125 421.05703 
L 755.42625 421.05703 
z
" style="fill:#b0e0e6;stroke:#ffffff;stroke-linejoin:miter;"/>
   </g>
   <g id="patch_123">
    <path clip-path="url(#pa5a2da8c1e)" d="M 760.6575 512.64 
L 764.8425 512.64 
L 764.8425 438.663327 
L 760.6575 438.663327 
z
" style="fill:#b0e0e6;stroke:#ffffff;stroke-linejoin:miter;"/>
   </g>
   <g id="patch_124">
    <path clip-path="url(#pa5a2da8c1e)" d="M 765.88875 512.64 
L 770.07375 512.64 
L 770.07375 439.721216 
L 765.88875 439.721216 
z
" style="fill:#b0e0e6;stroke:#ffffff;stroke-linejoin:miter;"/>
   </g>
   <g id="patch_125">
    <path clip-path="url(#pa5a2da8c1e)" d="M 771.12 512.64 
L 775.305 512.64 
L 775.305 444.368372 
L 771.12 444.368372 
z
" style="fill:#b0e0e6;stroke:#ffffff;stroke-linejoin:miter;"/>
   </g>
   <g id="patch_126">
    <path clip-path="url(#pa5a2da8c1e)" d="M 776.35125 512.64 
L 780.53625 512.64 
L 780.53625 427.857746 
L 776.35125 427.857746 
z
" style="fill:#b0e0e6;stroke:#ffffff;stroke-linejoin:miter;"/>
   </g>
   <g id="patch_127">
    <path clip-path="url(#pa5a2da8c1e)" d="M 781.5825 512.64 
L 785.7675 512.64 
L 785.7675 428.953417 
L 781.5825 428.953417 
z
" style="fill:#b0e0e6;stroke:#ffffff;stroke-linejoin:miter;"/>
   </g>
   <g id="patch_128">
    <path clip-path="url(#pa5a2da8c1e)" d="M 786.81375 512.64 
L 790.99875 512.64 
L 790.99875 427.744401 
L 786.81375 427.744401 
z
" style="fill:#b0e0e6;stroke:#ffffff;stroke-linejoin:miter;"/>
   </g>
   <g id="patch_129">
    <path clip-path="url(#pa5a2da8c1e)" d="M 792.045 512.64 
L 796.23 512.64 
L 796.23 441.610304 
L 792.045 441.610304 
z
" style="fill:#b0e0e6;stroke:#ffffff;stroke-linejoin:miter;"/>
   </g>
   <g id="patch_130">
    <path clip-path="url(#pa5a2da8c1e)" d="M 797.27625 512.64 
L 801.46125 512.64 
L 801.46125 436.396422 
L 797.27625 436.396422 
z
" style="fill:#b0e0e6;stroke:#ffffff;stroke-linejoin:miter;"/>
   </g>
   <g id="patch_131">
    <path clip-path="url(#pa5a2da8c1e)" d="M 802.5075 512.64 
L 806.6925 512.64 
L 806.6925 433.97839 
L 802.5075 433.97839 
z
" style="fill:#b0e0e6;stroke:#ffffff;stroke-linejoin:miter;"/>
   </g>
   <g id="patch_132">
    <path clip-path="url(#pa5a2da8c1e)" d="M 807.73875 512.64 
L 811.92375 512.64 
L 811.92375 441.988122 
L 807.73875 441.988122 
z
" style="fill:#b0e0e6;stroke:#ffffff;stroke-linejoin:miter;"/>
   </g>
   <g id="patch_133">
    <path clip-path="url(#pa5a2da8c1e)" d="M 812.97 512.64 
L 817.155 512.64 
L 817.155 441.30805 
L 812.97 441.30805 
z
" style="fill:#b0e0e6;stroke:#ffffff;stroke-linejoin:miter;"/>
   </g>
   <g id="patch_134">
    <path clip-path="url(#pa5a2da8c1e)" d="M 818.20125 512.64 
L 822.38625 512.64 
L 822.38625 439.003363 
L 818.20125 439.003363 
z
" style="fill:#b0e0e6;stroke:#ffffff;stroke-linejoin:miter;"/>
   </g>
   <g id="patch_135">
    <path clip-path="url(#pa5a2da8c1e)" d="M 823.4325 512.64 
L 827.6175 512.64 
L 827.6175 429.595707 
L 823.4325 429.595707 
z
" style="fill:#b0e0e6;stroke:#ffffff;stroke-linejoin:miter;"/>
   </g>
   <g id="patch_136">
    <path clip-path="url(#pa5a2da8c1e)" d="M 828.66375 512.64 
L 832.84875 512.64 
L 832.84875 424.079571 
L 828.66375 424.079571 
z
" style="fill:#b0e0e6;stroke:#ffffff;stroke-linejoin:miter;"/>
   </g>
   <g id="patch_137">
    <path clip-path="url(#pa5a2da8c1e)" d="M 833.895 512.64 
L 838.08 512.64 
L 838.08 436.77424 
L 833.895 436.77424 
z
" style="fill:#b0e0e6;stroke:#ffffff;stroke-linejoin:miter;"/>
   </g>
   <g id="patch_138">
    <path clip-path="url(#pa5a2da8c1e)" d="M 839.12625 512.64 
L 843.31125 512.64 
L 843.31125 419.810233 
L 839.12625 419.810233 
z
" style="fill:#b0e0e6;stroke:#ffffff;stroke-linejoin:miter;"/>
   </g>
   <g id="patch_139">
    <path clip-path="url(#pa5a2da8c1e)" d="M 844.3575 512.64 
L 848.5425 512.64 
L 848.5425 437.794347 
L 844.3575 437.794347 
z
" style="fill:#b0e0e6;stroke:#ffffff;stroke-linejoin:miter;"/>
   </g>
   <g id="patch_140">
    <path clip-path="url(#pa5a2da8c1e)" d="M 849.58875 512.64 
L 853.77375 512.64 
L 853.77375 418.67678 
L 849.58875 418.67678 
z
" style="fill:#b0e0e6;stroke:#ffffff;stroke-linejoin:miter;"/>
   </g>
   <g id="patch_141">
    <path clip-path="url(#pa5a2da8c1e)" d="M 854.82 512.64 
L 859.005 512.64 
L 859.005 416.183184 
L 854.82 416.183184 
z
" style="fill:#b0e0e6;stroke:#ffffff;stroke-linejoin:miter;"/>
   </g>
   <g id="patch_142">
    <path clip-path="url(#pa5a2da8c1e)" d="M 860.05125 512.64 
L 864.23625 512.64 
L 864.23625 313.794633 
L 860.05125 313.794633 
z
" style="fill:#b0e0e6;stroke:#ffffff;stroke-linejoin:miter;"/>
   </g>
   <g id="patch_143">
    <path clip-path="url(#pa5a2da8c1e)" d="M 865.2825 512.64 
L 869.4675 512.64 
L 869.4675 342.697674 
L 865.2825 342.697674 
z
" style="fill:#b0e0e6;stroke:#ffffff;stroke-linejoin:miter;"/>
   </g>
   <g id="patch_144">
    <path clip-path="url(#pa5a2da8c1e)" d="M 870.51375 512.64 
L 874.69875 512.64 
L 874.69875 415.578676 
L 870.51375 415.578676 
z
" style="fill:#b0e0e6;stroke:#ffffff;stroke-linejoin:miter;"/>
   </g>
   <g id="patch_145">
    <path clip-path="url(#pa5a2da8c1e)" d="M 875.745 512.64 
L 879.93 512.64 
L 879.93 424.004007 
L 875.745 424.004007 
z
" style="fill:#b0e0e6;stroke:#ffffff;stroke-linejoin:miter;"/>
   </g>
   <g id="patch_146">
    <path clip-path="url(#pa5a2da8c1e)" d="M 880.97625 512.64 
L 885.16125 512.64 
L 885.16125 438.587764 
L 880.97625 438.587764 
z
" style="fill:#b0e0e6;stroke:#ffffff;stroke-linejoin:miter;"/>
   </g>
   <g id="patch_147">
    <path clip-path="url(#pa5a2da8c1e)" d="M 886.2075 512.64 
L 890.3925 512.64 
L 890.3925 437.945474 
L 886.2075 437.945474 
z
" style="fill:#b0e0e6;stroke:#ffffff;stroke-linejoin:miter;"/>
   </g>
   <g id="patch_148">
    <path clip-path="url(#pa5a2da8c1e)" d="M 891.43875 512.64 
L 895.62375 512.64 
L 895.62375 452.567013 
L 891.43875 452.567013 
z
" style="fill:#b0e0e6;stroke:#ffffff;stroke-linejoin:miter;"/>
   </g>
   <g id="patch_149">
    <path clip-path="url(#pa5a2da8c1e)" d="M 896.67 512.64 
L 900.855 512.64 
L 900.855 451.169088 
L 896.67 451.169088 
z
" style="fill:#5f9ea0;stroke:#ffffff;stroke-linejoin:miter;"/>
   </g>
   <g id="patch_150">
    <path clip-path="url(#pa5a2da8c1e)" d="M 901.90125 512.64 
L 906.08625 512.64 
L 906.08625 435.300751 
L 901.90125 435.300751 
z
" style="fill:#5f9ea0;stroke:#ffffff;stroke-linejoin:miter;"/>
   </g>
   <g id="patch_151">
    <path clip-path="url(#pa5a2da8c1e)" d="M 907.1325 512.64 
L 911.3175 512.64 
L 911.3175 428.386691 
L 907.1325 428.386691 
z
" style="fill:#5f9ea0;stroke:#ffffff;stroke-linejoin:miter;"/>
   </g>
   <g id="patch_152">
    <path clip-path="url(#pa5a2da8c1e)" d="M 912.36375 512.64 
L 916.54875 512.64 
L 916.54875 445.501825 
L 912.36375 445.501825 
z
" style="fill:#5f9ea0;stroke:#ffffff;stroke-linejoin:miter;"/>
   </g>
   <g id="patch_153">
    <path clip-path="url(#pa5a2da8c1e)" d="M 917.595 512.64 
L 921.78 512.64 
L 921.78 422.039356 
L 917.595 422.039356 
z
" style="fill:#5f9ea0;stroke:#ffffff;stroke-linejoin:miter;"/>
   </g>
   <g id="patch_154">
    <path clip-path="url(#pa5a2da8c1e)" d="M 922.82625 512.64 
L 927.01125 512.64 
L 927.01125 362.835349 
L 922.82625 362.835349 
z
" style="fill:#5f9ea0;stroke:#ffffff;stroke-linejoin:miter;"/>
   </g>
   <g id="patch_155">
    <path clip-path="url(#pa5a2da8c1e)" d="M 928.0575 512.64 
L 932.2425 512.64 
L 932.2425 408.060107 
L 928.0575 408.060107 
z
" style="fill:#5f9ea0;stroke:#ffffff;stroke-linejoin:miter;"/>
   </g>
   <g id="patch_156">
    <path clip-path="url(#pa5a2da8c1e)" d="M 933.28875 512.64 
L 937.47375 512.64 
L 937.47375 440.930233 
L 933.28875 440.930233 
z
" style="fill:#5f9ea0;stroke:#ffffff;stroke-linejoin:miter;"/>
   </g>
   <g id="patch_157">
    <path clip-path="url(#pa5a2da8c1e)" d="M 938.52 512.64 
L 942.705 512.64 
L 942.705 439.230054 
L 938.52 439.230054 
z
" style="fill:#5f9ea0;stroke:#ffffff;stroke-linejoin:miter;"/>
   </g>
   <g id="patch_158">
    <path clip-path="url(#pa5a2da8c1e)" d="M 943.75125 512.64 
L 947.93625 512.64 
L 947.93625 437.492093 
L 943.75125 437.492093 
z
" style="fill:#5f9ea0;stroke:#ffffff;stroke-linejoin:miter;"/>
   </g>
   <g id="patch_159">
    <path clip-path="url(#pa5a2da8c1e)" d="M 948.9825 512.64 
L 953.1675 512.64 
L 953.1675 457.025259 
L 948.9825 457.025259 
z
" style="fill:#5f9ea0;stroke:#ffffff;stroke-linejoin:miter;"/>
   </g>
   <g id="patch_160">
    <path clip-path="url(#pa5a2da8c1e)" d="M 954.21375 512.64 
L 958.39875 512.64 
L 958.39875 460.085581 
L 954.21375 460.085581 
z
" style="fill:#5f9ea0;stroke:#ffffff;stroke-linejoin:miter;"/>
   </g>
   <g id="patch_161">
    <path clip-path="url(#pa5a2da8c1e)" d="M 959.445 512.64 
L 963.63 512.64 
L 963.63 447.99542 
L 959.445 447.99542 
z
" style="fill:#5f9ea0;stroke:#ffffff;stroke-linejoin:miter;"/>
   </g>
   <g id="patch_162">
    <path clip-path="url(#pa5a2da8c1e)" d="M 964.67625 512.64 
L 968.86125 512.64 
L 968.86125 448.63771 
L 964.67625 448.63771 
z
" style="fill:#5f9ea0;stroke:#ffffff;stroke-linejoin:miter;"/>
   </g>
   <g id="patch_163">
    <path clip-path="url(#pa5a2da8c1e)" d="M 969.9075 512.64 
L 974.0925 512.64 
L 974.0925 418.67678 
L 969.9075 418.67678 
z
" style="fill:#5f9ea0;stroke:#ffffff;stroke-linejoin:miter;"/>
   </g>
   <g id="patch_164">
    <path d="M 135 512.64 
L 135 69.12 
" style="fill:none;stroke:#ffffff;stroke-linecap:square;stroke-linejoin:miter;stroke-width:0.8;"/>
   </g>
   <g id="patch_165">
    <path d="M 972 512.64 
L 972 69.12 
" style="fill:none;stroke:#ffffff;stroke-linecap:square;stroke-linejoin:miter;stroke-width:0.8;"/>
   </g>
   <g id="patch_166">
    <path d="M 135 512.64 
L 972 512.64 
" style="fill:none;stroke:#ffffff;stroke-linecap:square;stroke-linejoin:miter;stroke-width:0.8;"/>
   </g>
   <g id="patch_167">
    <path d="M 135 69.12 
L 972 69.12 
" style="fill:none;stroke:#ffffff;stroke-linecap:square;stroke-linejoin:miter;stroke-width:0.8;"/>
   </g>
   <g id="text_9">
    <!-- Tweets distribution (OVERALL) -->
    <g style="fill:#262626;" transform="translate(470.469375 63.12)scale(0.12 -0.12)">
     <defs>
      <path id="ArialMT-20" transform="scale(0.015625)"/>
      <path d="M 2575 0 
L 2575 419 
Q 2259 -75 1647 -75 
Q 1250 -75 917 144 
Q 584 363 401 755 
Q 219 1147 219 1656 
Q 219 2153 384 2558 
Q 550 2963 881 3178 
Q 1213 3394 1622 3394 
Q 1922 3394 2156 3267 
Q 2391 3141 2538 2938 
L 2538 4581 
L 3097 4581 
L 3097 0 
L 2575 0 
z
M 797 1656 
Q 797 1019 1065 703 
Q 1334 388 1700 388 
Q 2069 388 2326 689 
Q 2584 991 2584 1609 
Q 2584 2291 2321 2609 
Q 2059 2928 1675 2928 
Q 1300 2928 1048 2622 
Q 797 2316 797 1656 
z
" id="ArialMT-64" transform="scale(0.015625)"/>
      <path d="M 425 3934 
L 425 4581 
L 988 4581 
L 988 3934 
L 425 3934 
z
M 425 0 
L 425 3319 
L 988 3319 
L 988 0 
L 425 0 
z
" id="ArialMT-69" transform="scale(0.015625)"/>
      <path d="M 416 0 
L 416 3319 
L 922 3319 
L 922 2816 
Q 1116 3169 1280 3281 
Q 1444 3394 1641 3394 
Q 1925 3394 2219 3213 
L 2025 2691 
Q 1819 2813 1613 2813 
Q 1428 2813 1281 2702 
Q 1134 2591 1072 2394 
Q 978 2094 978 1738 
L 978 0 
L 416 0 
z
" id="ArialMT-72" transform="scale(0.015625)"/>
      <path d="M 941 0 
L 419 0 
L 419 4581 
L 981 4581 
L 981 2947 
Q 1338 3394 1891 3394 
Q 2197 3394 2470 3270 
Q 2744 3147 2920 2923 
Q 3097 2700 3197 2384 
Q 3297 2069 3297 1709 
Q 3297 856 2875 390 
Q 2453 -75 1863 -75 
Q 1275 -75 941 416 
L 941 0 
z
M 934 1684 
Q 934 1088 1097 822 
Q 1363 388 1816 388 
Q 2184 388 2453 708 
Q 2722 1028 2722 1663 
Q 2722 2313 2464 2622 
Q 2206 2931 1841 2931 
Q 1472 2931 1203 2611 
Q 934 2291 934 1684 
z
" id="ArialMT-62" transform="scale(0.015625)"/>
      <path d="M 2597 0 
L 2597 488 
Q 2209 -75 1544 -75 
Q 1250 -75 995 37 
Q 741 150 617 320 
Q 494 491 444 738 
Q 409 903 409 1263 
L 409 3319 
L 972 3319 
L 972 1478 
Q 972 1038 1006 884 
Q 1059 663 1231 536 
Q 1403 409 1656 409 
Q 1909 409 2131 539 
Q 2353 669 2445 892 
Q 2538 1116 2538 1541 
L 2538 3319 
L 3100 3319 
L 3100 0 
L 2597 0 
z
" id="ArialMT-75" transform="scale(0.015625)"/>
      <path d="M 213 1659 
Q 213 2581 725 3025 
Q 1153 3394 1769 3394 
Q 2453 3394 2887 2945 
Q 3322 2497 3322 1706 
Q 3322 1066 3130 698 
Q 2938 331 2570 128 
Q 2203 -75 1769 -75 
Q 1072 -75 642 372 
Q 213 819 213 1659 
z
M 791 1659 
Q 791 1022 1069 705 
Q 1347 388 1769 388 
Q 2188 388 2466 706 
Q 2744 1025 2744 1678 
Q 2744 2294 2464 2611 
Q 2184 2928 1769 2928 
Q 1347 2928 1069 2612 
Q 791 2297 791 1659 
z
" id="ArialMT-6f" transform="scale(0.015625)"/>
      <path d="M 422 0 
L 422 3319 
L 928 3319 
L 928 2847 
Q 1294 3394 1984 3394 
Q 2284 3394 2536 3286 
Q 2788 3178 2913 3003 
Q 3038 2828 3088 2588 
Q 3119 2431 3119 2041 
L 3119 0 
L 2556 0 
L 2556 2019 
Q 2556 2363 2490 2533 
Q 2425 2703 2258 2804 
Q 2091 2906 1866 2906 
Q 1506 2906 1245 2678 
Q 984 2450 984 1813 
L 984 0 
L 422 0 
z
" id="ArialMT-6e" transform="scale(0.015625)"/>
      <path d="M 1497 -1347 
Q 1031 -759 709 28 
Q 388 816 388 1659 
Q 388 2403 628 3084 
Q 909 3875 1497 4659 
L 1900 4659 
Q 1522 4009 1400 3731 
Q 1209 3300 1100 2831 
Q 966 2247 966 1656 
Q 966 153 1900 -1347 
L 1497 -1347 
z
" id="ArialMT-28" transform="scale(0.015625)"/>
      <path d="M 309 2231 
Q 309 3372 921 4017 
Q 1534 4663 2503 4663 
Q 3138 4663 3647 4359 
Q 4156 4056 4423 3514 
Q 4691 2972 4691 2284 
Q 4691 1588 4409 1038 
Q 4128 488 3612 205 
Q 3097 -78 2500 -78 
Q 1853 -78 1343 234 
Q 834 547 571 1087 
Q 309 1628 309 2231 
z
M 934 2222 
Q 934 1394 1379 917 
Q 1825 441 2497 441 
Q 3181 441 3623 922 
Q 4066 1403 4066 2288 
Q 4066 2847 3877 3264 
Q 3688 3681 3323 3911 
Q 2959 4141 2506 4141 
Q 1863 4141 1398 3698 
Q 934 3256 934 2222 
z
" id="ArialMT-4f" transform="scale(0.015625)"/>
      <path d="M 1803 0 
L 28 4581 
L 684 4581 
L 1875 1253 
Q 2019 853 2116 503 
Q 2222 878 2363 1253 
L 3600 4581 
L 4219 4581 
L 2425 0 
L 1803 0 
z
" id="ArialMT-56" transform="scale(0.015625)"/>
      <path d="M 506 0 
L 506 4581 
L 3819 4581 
L 3819 4041 
L 1113 4041 
L 1113 2638 
L 3647 2638 
L 3647 2100 
L 1113 2100 
L 1113 541 
L 3925 541 
L 3925 0 
L 506 0 
z
" id="ArialMT-45" transform="scale(0.015625)"/>
      <path d="M 503 0 
L 503 4581 
L 2534 4581 
Q 3147 4581 3465 4457 
Q 3784 4334 3975 4021 
Q 4166 3709 4166 3331 
Q 4166 2844 3850 2509 
Q 3534 2175 2875 2084 
Q 3116 1969 3241 1856 
Q 3506 1613 3744 1247 
L 4541 0 
L 3778 0 
L 3172 953 
Q 2906 1366 2734 1584 
Q 2563 1803 2427 1890 
Q 2291 1978 2150 2013 
Q 2047 2034 1813 2034 
L 1109 2034 
L 1109 0 
L 503 0 
z
M 1109 2559 
L 2413 2559 
Q 2828 2559 3062 2645 
Q 3297 2731 3419 2920 
Q 3541 3109 3541 3331 
Q 3541 3656 3305 3865 
Q 3069 4075 2559 4075 
L 1109 4075 
L 1109 2559 
z
" id="ArialMT-52" transform="scale(0.015625)"/>
      <path d="M -9 0 
L 1750 4581 
L 2403 4581 
L 4278 0 
L 3588 0 
L 3053 1388 
L 1138 1388 
L 634 0 
L -9 0 
z
M 1313 1881 
L 2866 1881 
L 2388 3150 
Q 2169 3728 2063 4100 
Q 1975 3659 1816 3225 
L 1313 1881 
z
" id="ArialMT-41" transform="scale(0.015625)"/>
      <path d="M 469 0 
L 469 4581 
L 1075 4581 
L 1075 541 
L 3331 541 
L 3331 0 
L 469 0 
z
" id="ArialMT-4c" transform="scale(0.015625)"/>
      <path d="M 791 -1347 
L 388 -1347 
Q 1322 153 1322 1656 
Q 1322 2244 1188 2822 
Q 1081 3291 891 3722 
Q 769 4003 388 4659 
L 791 4659 
Q 1378 3875 1659 3084 
Q 1900 2403 1900 1659 
Q 1900 816 1576 28 
Q 1253 -759 791 -1347 
z
" id="ArialMT-29" transform="scale(0.015625)"/>
     </defs>
     <use xlink:href="#ArialMT-54"/>
     <use x="55.583984" xlink:href="#ArialMT-77"/>
     <use x="127.800781" xlink:href="#ArialMT-65"/>
     <use x="183.416016" xlink:href="#ArialMT-65"/>
     <use x="239.03125" xlink:href="#ArialMT-74"/>
     <use x="266.814453" xlink:href="#ArialMT-73"/>
     <use x="316.814453" xlink:href="#ArialMT-20"/>
     <use x="344.597656" xlink:href="#ArialMT-64"/>
     <use x="400.212891" xlink:href="#ArialMT-69"/>
     <use x="422.429688" xlink:href="#ArialMT-73"/>
     <use x="472.429688" xlink:href="#ArialMT-74"/>
     <use x="500.212891" xlink:href="#ArialMT-72"/>
     <use x="533.513672" xlink:href="#ArialMT-69"/>
     <use x="555.730469" xlink:href="#ArialMT-62"/>
     <use x="611.345703" xlink:href="#ArialMT-75"/>
     <use x="666.960938" xlink:href="#ArialMT-74"/>
     <use x="694.744141" xlink:href="#ArialMT-69"/>
     <use x="716.960938" xlink:href="#ArialMT-6f"/>
     <use x="772.576172" xlink:href="#ArialMT-6e"/>
     <use x="828.191406" xlink:href="#ArialMT-20"/>
     <use x="855.974609" xlink:href="#ArialMT-28"/>
     <use x="889.275391" xlink:href="#ArialMT-4f"/>
     <use x="967.058594" xlink:href="#ArialMT-56"/>
     <use x="1033.757812" xlink:href="#ArialMT-45"/>
     <use x="1100.457031" xlink:href="#ArialMT-52"/>
     <use x="1172.673828" xlink:href="#ArialMT-41"/>
     <use x="1239.373047" xlink:href="#ArialMT-4c"/>
     <use x="1294.988281" xlink:href="#ArialMT-4c"/>
     <use x="1350.603516" xlink:href="#ArialMT-29"/>
    </g>
   </g>
   <g id="legend_1">
    <g id="line2d_7">
     <path d="M 428.415625 81.899688 
L 448.415625 81.899688 
" style="fill:none;stroke:#4682b4;stroke-linecap:round;stroke-width:4;"/>
    </g>
    <g id="line2d_8"/>
    <g id="text_10">
     <!-- July -->
     <g style="fill:#262626;" transform="translate(456.415625 85.399688)scale(0.1 -0.1)">
      <defs>
       <path d="M 184 1300 
L 731 1375 
Q 753 850 928 656 
Q 1103 463 1413 463 
Q 1641 463 1806 567 
Q 1972 672 2034 851 
Q 2097 1031 2097 1425 
L 2097 4581 
L 2703 4581 
L 2703 1459 
Q 2703 884 2564 568 
Q 2425 253 2123 87 
Q 1822 -78 1416 -78 
Q 813 -78 492 269 
Q 172 616 184 1300 
z
" id="ArialMT-4a" transform="scale(0.015625)"/>
       <path d="M 409 0 
L 409 4581 
L 972 4581 
L 972 0 
L 409 0 
z
" id="ArialMT-6c" transform="scale(0.015625)"/>
      </defs>
      <use xlink:href="#ArialMT-4a"/>
      <use x="50" xlink:href="#ArialMT-75"/>
      <use x="105.615234" xlink:href="#ArialMT-6c"/>
      <use x="127.832031" xlink:href="#ArialMT-79"/>
     </g>
    </g>
    <g id="line2d_9">
     <path d="M 428.415625 96.162188 
L 448.415625 96.162188 
" style="fill:none;stroke:#87cefa;stroke-linecap:round;stroke-width:4;"/>
    </g>
    <g id="line2d_10"/>
    <g id="text_11">
     <!-- August -->
     <g style="fill:#262626;" transform="translate(456.415625 99.662188)scale(0.1 -0.1)">
      <defs>
       <path d="M 319 -275 
L 866 -356 
Q 900 -609 1056 -725 
Q 1266 -881 1628 -881 
Q 2019 -881 2231 -725 
Q 2444 -569 2519 -288 
Q 2563 -116 2559 434 
Q 2191 0 1641 0 
Q 956 0 581 494 
Q 206 988 206 1678 
Q 206 2153 378 2554 
Q 550 2956 876 3175 
Q 1203 3394 1644 3394 
Q 2231 3394 2613 2919 
L 2613 3319 
L 3131 3319 
L 3131 450 
Q 3131 -325 2973 -648 
Q 2816 -972 2473 -1159 
Q 2131 -1347 1631 -1347 
Q 1038 -1347 672 -1080 
Q 306 -813 319 -275 
z
M 784 1719 
Q 784 1066 1043 766 
Q 1303 466 1694 466 
Q 2081 466 2343 764 
Q 2606 1063 2606 1700 
Q 2606 2309 2336 2618 
Q 2066 2928 1684 2928 
Q 1309 2928 1046 2623 
Q 784 2319 784 1719 
z
" id="ArialMT-67" transform="scale(0.015625)"/>
      </defs>
      <use xlink:href="#ArialMT-41"/>
      <use x="66.699219" xlink:href="#ArialMT-75"/>
      <use x="122.314453" xlink:href="#ArialMT-67"/>
      <use x="177.929688" xlink:href="#ArialMT-75"/>
      <use x="233.544922" xlink:href="#ArialMT-73"/>
      <use x="283.544922" xlink:href="#ArialMT-74"/>
     </g>
    </g>
    <g id="line2d_11">
     <path d="M 507.546875 81.899688 
L 527.546875 81.899688 
" style="fill:none;stroke:#87ceeb;stroke-linecap:round;stroke-width:4;"/>
    </g>
    <g id="line2d_12"/>
    <g id="text_12">
     <!-- September -->
     <g style="fill:#262626;" transform="translate(535.546875 85.399688)scale(0.1 -0.1)">
      <defs>
       <path d="M 288 1472 
L 859 1522 
Q 900 1178 1048 958 
Q 1197 738 1509 602 
Q 1822 466 2213 466 
Q 2559 466 2825 569 
Q 3091 672 3220 851 
Q 3350 1031 3350 1244 
Q 3350 1459 3225 1620 
Q 3100 1781 2813 1891 
Q 2628 1963 1997 2114 
Q 1366 2266 1113 2400 
Q 784 2572 623 2826 
Q 463 3081 463 3397 
Q 463 3744 659 4045 
Q 856 4347 1234 4503 
Q 1613 4659 2075 4659 
Q 2584 4659 2973 4495 
Q 3363 4331 3572 4012 
Q 3781 3694 3797 3291 
L 3216 3247 
Q 3169 3681 2898 3903 
Q 2628 4125 2100 4125 
Q 1550 4125 1298 3923 
Q 1047 3722 1047 3438 
Q 1047 3191 1225 3031 
Q 1400 2872 2139 2705 
Q 2878 2538 3153 2413 
Q 3553 2228 3743 1945 
Q 3934 1663 3934 1294 
Q 3934 928 3725 604 
Q 3516 281 3123 101 
Q 2731 -78 2241 -78 
Q 1619 -78 1198 103 
Q 778 284 539 648 
Q 300 1013 288 1472 
z
" id="ArialMT-53" transform="scale(0.015625)"/>
       <path d="M 422 -1272 
L 422 3319 
L 934 3319 
L 934 2888 
Q 1116 3141 1344 3267 
Q 1572 3394 1897 3394 
Q 2322 3394 2647 3175 
Q 2972 2956 3137 2557 
Q 3303 2159 3303 1684 
Q 3303 1175 3120 767 
Q 2938 359 2589 142 
Q 2241 -75 1856 -75 
Q 1575 -75 1351 44 
Q 1128 163 984 344 
L 984 -1272 
L 422 -1272 
z
M 931 1641 
Q 931 1000 1190 694 
Q 1450 388 1819 388 
Q 2194 388 2461 705 
Q 2728 1022 2728 1688 
Q 2728 2322 2467 2637 
Q 2206 2953 1844 2953 
Q 1484 2953 1207 2617 
Q 931 2281 931 1641 
z
" id="ArialMT-70" transform="scale(0.015625)"/>
       <path d="M 422 0 
L 422 3319 
L 925 3319 
L 925 2853 
Q 1081 3097 1340 3245 
Q 1600 3394 1931 3394 
Q 2300 3394 2536 3241 
Q 2772 3088 2869 2813 
Q 3263 3394 3894 3394 
Q 4388 3394 4653 3120 
Q 4919 2847 4919 2278 
L 4919 0 
L 4359 0 
L 4359 2091 
Q 4359 2428 4304 2576 
Q 4250 2725 4106 2815 
Q 3963 2906 3769 2906 
Q 3419 2906 3187 2673 
Q 2956 2441 2956 1928 
L 2956 0 
L 2394 0 
L 2394 2156 
Q 2394 2531 2256 2718 
Q 2119 2906 1806 2906 
Q 1569 2906 1367 2781 
Q 1166 2656 1075 2415 
Q 984 2175 984 1722 
L 984 0 
L 422 0 
z
" id="ArialMT-6d" transform="scale(0.015625)"/>
      </defs>
      <use xlink:href="#ArialMT-53"/>
      <use x="66.699219" xlink:href="#ArialMT-65"/>
      <use x="122.314453" xlink:href="#ArialMT-70"/>
      <use x="177.929688" xlink:href="#ArialMT-74"/>
      <use x="205.712891" xlink:href="#ArialMT-65"/>
      <use x="261.328125" xlink:href="#ArialMT-6d"/>
      <use x="344.628906" xlink:href="#ArialMT-62"/>
      <use x="400.244141" xlink:href="#ArialMT-65"/>
      <use x="455.859375" xlink:href="#ArialMT-72"/>
     </g>
    </g>
    <g id="line2d_13">
     <path d="M 507.546875 96.045 
L 527.546875 96.045 
" style="fill:none;stroke:#add8e6;stroke-linecap:round;stroke-width:4;"/>
    </g>
    <g id="line2d_14"/>
    <g id="text_13">
     <!-- October -->
     <g style="fill:#262626;" transform="translate(535.546875 99.545)scale(0.1 -0.1)">
      <defs>
       <path d="M 2588 1216 
L 3141 1144 
Q 3050 572 2676 248 
Q 2303 -75 1759 -75 
Q 1078 -75 664 370 
Q 250 816 250 1647 
Q 250 2184 428 2587 
Q 606 2991 970 3192 
Q 1334 3394 1763 3394 
Q 2303 3394 2647 3120 
Q 2991 2847 3088 2344 
L 2541 2259 
Q 2463 2594 2264 2762 
Q 2066 2931 1784 2931 
Q 1359 2931 1093 2626 
Q 828 2322 828 1663 
Q 828 994 1084 691 
Q 1341 388 1753 388 
Q 2084 388 2306 591 
Q 2528 794 2588 1216 
z
" id="ArialMT-63" transform="scale(0.015625)"/>
      </defs>
      <use xlink:href="#ArialMT-4f"/>
      <use x="77.783203" xlink:href="#ArialMT-63"/>
      <use x="127.783203" xlink:href="#ArialMT-74"/>
      <use x="155.566406" xlink:href="#ArialMT-6f"/>
      <use x="211.181641" xlink:href="#ArialMT-62"/>
      <use x="266.796875" xlink:href="#ArialMT-65"/>
      <use x="322.412109" xlink:href="#ArialMT-72"/>
     </g>
    </g>
    <g id="line2d_15">
     <path d="M 604.459375 81.899688 
L 624.459375 81.899688 
" style="fill:none;stroke:#b0e0e6;stroke-linecap:round;stroke-width:4;"/>
    </g>
    <g id="line2d_16"/>
    <g id="text_14">
     <!-- Novemer -->
     <g style="fill:#262626;" transform="translate(632.459375 85.399688)scale(0.1 -0.1)">
      <defs>
       <path d="M 488 0 
L 488 4581 
L 1109 4581 
L 3516 984 
L 3516 4581 
L 4097 4581 
L 4097 0 
L 3475 0 
L 1069 3600 
L 1069 0 
L 488 0 
z
" id="ArialMT-4e" transform="scale(0.015625)"/>
       <path d="M 1344 0 
L 81 3319 
L 675 3319 
L 1388 1331 
Q 1503 1009 1600 663 
Q 1675 925 1809 1294 
L 2547 3319 
L 3125 3319 
L 1869 0 
L 1344 0 
z
" id="ArialMT-76" transform="scale(0.015625)"/>
      </defs>
      <use xlink:href="#ArialMT-4e"/>
      <use x="72.216797" xlink:href="#ArialMT-6f"/>
      <use x="127.832031" xlink:href="#ArialMT-76"/>
      <use x="177.832031" xlink:href="#ArialMT-65"/>
      <use x="233.447266" xlink:href="#ArialMT-6d"/>
      <use x="316.748047" xlink:href="#ArialMT-65"/>
      <use x="372.363281" xlink:href="#ArialMT-72"/>
     </g>
    </g>
    <g id="line2d_17">
     <path d="M 604.459375 96.045 
L 624.459375 96.045 
" style="fill:none;stroke:#5f9ea0;stroke-linecap:round;stroke-width:4;"/>
    </g>
    <g id="line2d_18"/>
    <g id="text_15">
     <!-- December -->
     <g style="fill:#262626;" transform="translate(632.459375 99.545)scale(0.1 -0.1)">
      <use xlink:href="#ArialMT-44"/>
      <use x="72.216797" xlink:href="#ArialMT-65"/>
      <use x="127.832031" xlink:href="#ArialMT-63"/>
      <use x="177.832031" xlink:href="#ArialMT-65"/>
      <use x="233.447266" xlink:href="#ArialMT-6d"/>
      <use x="316.748047" xlink:href="#ArialMT-62"/>
      <use x="372.363281" xlink:href="#ArialMT-65"/>
      <use x="427.978516" xlink:href="#ArialMT-72"/>
     </g>
    </g>
   </g>
  </g>
 </g>
 <defs>
  <clipPath id="pa5a2da8c1e">
   <rect height="443.52" width="837" x="135" y="69.12"/>
  </clipPath>
 </defs>
</svg>
