<?xml version="1.0" encoding="utf-8" standalone="no"?>
<!DOCTYPE svg PUBLIC "-//W3C//DTD SVG 1.1//EN"
  "http://www.w3.org/Graphics/SVG/1.1/DTD/svg11.dtd">
<svg height="576pt" version="1.1" viewBox="0 0 1080 576" width="1080pt" xmlns="http://www.w3.org/2000/svg" xmlns:xlink="http://www.w3.org/1999/xlink">
 <metadata>
  <rdf:RDF xmlns:cc="http://creativecommons.org/ns#" xmlns:dc="http://purl.org/dc/elements/1.1/" xmlns:rdf="http://www.w3.org/1999/02/22-rdf-syntax-ns#">
   <cc:Work>
    <dc:type rdf:resource="http://purl.org/dc/dcmitype/StillImage"/>
    <dc:date>2022-01-05T11:34:52.963796</dc:date>
    <dc:format>image/svg+xml</dc:format>
    <dc:creator>
     <cc:Agent>
      <dc:title>Matplotlib v3.4.3, https://matplotlib.org/</dc:title>
     </cc:Agent>
    </dc:creator>
   </cc:Work>
  </rdf:RDF>
 </metadata>
 <defs>
  <style type="text/css">*{stroke-linecap:butt;stroke-linejoin:round;}</style>
 </defs>
 <g id="figure_1">
  <g id="patch_1">
   <path d="M 0 576 
L 1080 576 
L 1080 0 
L 0 0 
z
" style="fill:#ffffff;"/>
  </g>
  <g id="axes_1">
   <g id="patch_2">
    <path d="M 135 512.64 
L 972 512.64 
L 972 69.12 
L 135 69.12 
z
" style="fill:#ffffff;"/>
   </g>
   <g id="matplotlib.axis_1">
    <g id="xtick_1">
     <g id="line2d_1">
      <path clip-path="url(#p135445113f)" d="M 203.00625 512.64 
L 203.00625 69.12 
" style="fill:none;stroke:#808080;stroke-linecap:square;stroke-width:0.5;"/>
     </g>
     <g id="line2d_2">
      <defs>
       <path d="M 0 0 
L 0 3.5 
" id="ma70fe5d39a" style="stroke:#000000;stroke-width:0.8;"/>
      </defs>
      <g>
       <use style="stroke:#000000;stroke-width:0.8;" x="203.00625" xlink:href="#ma70fe5d39a" y="512.64"/>
      </g>
     </g>
     <g id="text_1">
      <!-- 07-14-2021 -->
      <g transform="translate(205.765625 577.755625)rotate(-90)scale(0.1 -0.1)">
       <defs>
        <path d="M 2034 4250 
Q 1547 4250 1301 3770 
Q 1056 3291 1056 2328 
Q 1056 1369 1301 889 
Q 1547 409 2034 409 
Q 2525 409 2770 889 
Q 3016 1369 3016 2328 
Q 3016 3291 2770 3770 
Q 2525 4250 2034 4250 
z
M 2034 4750 
Q 2819 4750 3233 4129 
Q 3647 3509 3647 2328 
Q 3647 1150 3233 529 
Q 2819 -91 2034 -91 
Q 1250 -91 836 529 
Q 422 1150 422 2328 
Q 422 3509 836 4129 
Q 1250 4750 2034 4750 
z
" id="DejaVuSans-30" transform="scale(0.015625)"/>
        <path d="M 525 4666 
L 3525 4666 
L 3525 4397 
L 1831 0 
L 1172 0 
L 2766 4134 
L 525 4134 
L 525 4666 
z
" id="DejaVuSans-37" transform="scale(0.015625)"/>
        <path d="M 313 2009 
L 1997 2009 
L 1997 1497 
L 313 1497 
L 313 2009 
z
" id="DejaVuSans-2d" transform="scale(0.015625)"/>
        <path d="M 794 531 
L 1825 531 
L 1825 4091 
L 703 3866 
L 703 4441 
L 1819 4666 
L 2450 4666 
L 2450 531 
L 3481 531 
L 3481 0 
L 794 0 
L 794 531 
z
" id="DejaVuSans-31" transform="scale(0.015625)"/>
        <path d="M 2419 4116 
L 825 1625 
L 2419 1625 
L 2419 4116 
z
M 2253 4666 
L 3047 4666 
L 3047 1625 
L 3713 1625 
L 3713 1100 
L 3047 1100 
L 3047 0 
L 2419 0 
L 2419 1100 
L 313 1100 
L 313 1709 
L 2253 4666 
z
" id="DejaVuSans-34" transform="scale(0.015625)"/>
        <path d="M 1228 531 
L 3431 531 
L 3431 0 
L 469 0 
L 469 531 
Q 828 903 1448 1529 
Q 2069 2156 2228 2338 
Q 2531 2678 2651 2914 
Q 2772 3150 2772 3378 
Q 2772 3750 2511 3984 
Q 2250 4219 1831 4219 
Q 1534 4219 1204 4116 
Q 875 4013 500 3803 
L 500 4441 
Q 881 4594 1212 4672 
Q 1544 4750 1819 4750 
Q 2544 4750 2975 4387 
Q 3406 4025 3406 3419 
Q 3406 3131 3298 2873 
Q 3191 2616 2906 2266 
Q 2828 2175 2409 1742 
Q 1991 1309 1228 531 
z
" id="DejaVuSans-32" transform="scale(0.015625)"/>
       </defs>
       <use xlink:href="#DejaVuSans-30"/>
       <use x="63.623047" xlink:href="#DejaVuSans-37"/>
       <use x="127.246094" xlink:href="#DejaVuSans-2d"/>
       <use x="163.330078" xlink:href="#DejaVuSans-31"/>
       <use x="226.953125" xlink:href="#DejaVuSans-34"/>
       <use x="290.576172" xlink:href="#DejaVuSans-2d"/>
       <use x="326.660156" xlink:href="#DejaVuSans-32"/>
       <use x="390.283203" xlink:href="#DejaVuSans-30"/>
       <use x="453.90625" xlink:href="#DejaVuSans-32"/>
       <use x="517.529297" xlink:href="#DejaVuSans-31"/>
      </g>
     </g>
    </g>
    <g id="xtick_2">
     <g id="line2d_3">
      <path clip-path="url(#p135445113f)" d="M 244.85625 512.64 
L 244.85625 69.12 
" style="fill:none;stroke:#808080;stroke-linecap:square;stroke-width:0.5;"/>
     </g>
     <g id="line2d_4">
      <g>
       <use style="stroke:#000000;stroke-width:0.8;" x="244.85625" xlink:href="#ma70fe5d39a" y="512.64"/>
      </g>
     </g>
     <g id="text_2">
      <!-- 07-22-2021 -->
      <g transform="translate(247.615625 577.755625)rotate(-90)scale(0.1 -0.1)">
       <use xlink:href="#DejaVuSans-30"/>
       <use x="63.623047" xlink:href="#DejaVuSans-37"/>
       <use x="127.246094" xlink:href="#DejaVuSans-2d"/>
       <use x="163.330078" xlink:href="#DejaVuSans-32"/>
       <use x="226.953125" xlink:href="#DejaVuSans-32"/>
       <use x="290.576172" xlink:href="#DejaVuSans-2d"/>
       <use x="326.660156" xlink:href="#DejaVuSans-32"/>
       <use x="390.283203" xlink:href="#DejaVuSans-30"/>
       <use x="453.90625" xlink:href="#DejaVuSans-32"/>
       <use x="517.529297" xlink:href="#DejaVuSans-31"/>
      </g>
     </g>
    </g>
    <g id="xtick_3">
     <g id="line2d_5">
      <path clip-path="url(#p135445113f)" d="M 323.325 512.64 
L 323.325 69.12 
" style="fill:none;stroke:#808080;stroke-linecap:square;stroke-width:0.5;"/>
     </g>
     <g id="line2d_6">
      <g>
       <use style="stroke:#000000;stroke-width:0.8;" x="323.325" xlink:href="#ma70fe5d39a" y="512.64"/>
      </g>
     </g>
     <g id="text_3">
      <!-- 08-06-2021 -->
      <g transform="translate(326.084375 577.755625)rotate(-90)scale(0.1 -0.1)">
       <defs>
        <path d="M 2034 2216 
Q 1584 2216 1326 1975 
Q 1069 1734 1069 1313 
Q 1069 891 1326 650 
Q 1584 409 2034 409 
Q 2484 409 2743 651 
Q 3003 894 3003 1313 
Q 3003 1734 2745 1975 
Q 2488 2216 2034 2216 
z
M 1403 2484 
Q 997 2584 770 2862 
Q 544 3141 544 3541 
Q 544 4100 942 4425 
Q 1341 4750 2034 4750 
Q 2731 4750 3128 4425 
Q 3525 4100 3525 3541 
Q 3525 3141 3298 2862 
Q 3072 2584 2669 2484 
Q 3125 2378 3379 2068 
Q 3634 1759 3634 1313 
Q 3634 634 3220 271 
Q 2806 -91 2034 -91 
Q 1263 -91 848 271 
Q 434 634 434 1313 
Q 434 1759 690 2068 
Q 947 2378 1403 2484 
z
M 1172 3481 
Q 1172 3119 1398 2916 
Q 1625 2713 2034 2713 
Q 2441 2713 2670 2916 
Q 2900 3119 2900 3481 
Q 2900 3844 2670 4047 
Q 2441 4250 2034 4250 
Q 1625 4250 1398 4047 
Q 1172 3844 1172 3481 
z
" id="DejaVuSans-38" transform="scale(0.015625)"/>
        <path d="M 2113 2584 
Q 1688 2584 1439 2293 
Q 1191 2003 1191 1497 
Q 1191 994 1439 701 
Q 1688 409 2113 409 
Q 2538 409 2786 701 
Q 3034 994 3034 1497 
Q 3034 2003 2786 2293 
Q 2538 2584 2113 2584 
z
M 3366 4563 
L 3366 3988 
Q 3128 4100 2886 4159 
Q 2644 4219 2406 4219 
Q 1781 4219 1451 3797 
Q 1122 3375 1075 2522 
Q 1259 2794 1537 2939 
Q 1816 3084 2150 3084 
Q 2853 3084 3261 2657 
Q 3669 2231 3669 1497 
Q 3669 778 3244 343 
Q 2819 -91 2113 -91 
Q 1303 -91 875 529 
Q 447 1150 447 2328 
Q 447 3434 972 4092 
Q 1497 4750 2381 4750 
Q 2619 4750 2861 4703 
Q 3103 4656 3366 4563 
z
" id="DejaVuSans-36" transform="scale(0.015625)"/>
       </defs>
       <use xlink:href="#DejaVuSans-30"/>
       <use x="63.623047" xlink:href="#DejaVuSans-38"/>
       <use x="127.246094" xlink:href="#DejaVuSans-2d"/>
       <use x="163.330078" xlink:href="#DejaVuSans-30"/>
       <use x="226.953125" xlink:href="#DejaVuSans-36"/>
       <use x="290.576172" xlink:href="#DejaVuSans-2d"/>
       <use x="326.660156" xlink:href="#DejaVuSans-32"/>
       <use x="390.283203" xlink:href="#DejaVuSans-30"/>
       <use x="453.90625" xlink:href="#DejaVuSans-32"/>
       <use x="517.529297" xlink:href="#DejaVuSans-31"/>
      </g>
     </g>
    </g>
    <g id="xtick_4">
     <g id="line2d_7">
      <path clip-path="url(#p135445113f)" d="M 339.01875 512.64 
L 339.01875 69.12 
" style="fill:none;stroke:#808080;stroke-linecap:square;stroke-width:0.5;"/>
     </g>
     <g id="line2d_8">
      <g>
       <use style="stroke:#000000;stroke-width:0.8;" x="339.01875" xlink:href="#ma70fe5d39a" y="512.64"/>
      </g>
     </g>
     <g id="text_4">
      <!-- 08-09-2021 -->
      <g transform="translate(341.778125 577.755625)rotate(-90)scale(0.1 -0.1)">
       <defs>
        <path d="M 703 97 
L 703 672 
Q 941 559 1184 500 
Q 1428 441 1663 441 
Q 2288 441 2617 861 
Q 2947 1281 2994 2138 
Q 2813 1869 2534 1725 
Q 2256 1581 1919 1581 
Q 1219 1581 811 2004 
Q 403 2428 403 3163 
Q 403 3881 828 4315 
Q 1253 4750 1959 4750 
Q 2769 4750 3195 4129 
Q 3622 3509 3622 2328 
Q 3622 1225 3098 567 
Q 2575 -91 1691 -91 
Q 1453 -91 1209 -44 
Q 966 3 703 97 
z
M 1959 2075 
Q 2384 2075 2632 2365 
Q 2881 2656 2881 3163 
Q 2881 3666 2632 3958 
Q 2384 4250 1959 4250 
Q 1534 4250 1286 3958 
Q 1038 3666 1038 3163 
Q 1038 2656 1286 2365 
Q 1534 2075 1959 2075 
z
" id="DejaVuSans-39" transform="scale(0.015625)"/>
       </defs>
       <use xlink:href="#DejaVuSans-30"/>
       <use x="63.623047" xlink:href="#DejaVuSans-38"/>
       <use x="127.246094" xlink:href="#DejaVuSans-2d"/>
       <use x="163.330078" xlink:href="#DejaVuSans-30"/>
       <use x="226.953125" xlink:href="#DejaVuSans-39"/>
       <use x="290.576172" xlink:href="#DejaVuSans-2d"/>
       <use x="326.660156" xlink:href="#DejaVuSans-32"/>
       <use x="390.283203" xlink:href="#DejaVuSans-30"/>
       <use x="453.90625" xlink:href="#DejaVuSans-32"/>
       <use x="517.529297" xlink:href="#DejaVuSans-31"/>
      </g>
     </g>
    </g>
    <g id="xtick_5">
     <g id="line2d_9">
      <path clip-path="url(#p135445113f)" d="M 459.3375 512.64 
L 459.3375 69.12 
" style="fill:none;stroke:#808080;stroke-linecap:square;stroke-width:0.5;"/>
     </g>
     <g id="line2d_10">
      <g>
       <use style="stroke:#000000;stroke-width:0.8;" x="459.3375" xlink:href="#ma70fe5d39a" y="512.64"/>
      </g>
     </g>
     <g id="text_5">
      <!-- 09-01-2021 -->
      <g transform="translate(462.096875 577.755625)rotate(-90)scale(0.1 -0.1)">
       <use xlink:href="#DejaVuSans-30"/>
       <use x="63.623047" xlink:href="#DejaVuSans-39"/>
       <use x="127.246094" xlink:href="#DejaVuSans-2d"/>
       <use x="163.330078" xlink:href="#DejaVuSans-30"/>
       <use x="226.953125" xlink:href="#DejaVuSans-31"/>
       <use x="290.576172" xlink:href="#DejaVuSans-2d"/>
       <use x="326.660156" xlink:href="#DejaVuSans-32"/>
       <use x="390.283203" xlink:href="#DejaVuSans-30"/>
       <use x="453.90625" xlink:href="#DejaVuSans-32"/>
       <use x="517.529297" xlink:href="#DejaVuSans-31"/>
      </g>
     </g>
    </g>
    <g id="xtick_6">
     <g id="line2d_11">
      <path clip-path="url(#p135445113f)" d="M 490.725 512.64 
L 490.725 69.12 
" style="fill:none;stroke:#808080;stroke-linecap:square;stroke-width:0.5;"/>
     </g>
     <g id="line2d_12">
      <g>
       <use style="stroke:#000000;stroke-width:0.8;" x="490.725" xlink:href="#ma70fe5d39a" y="512.64"/>
      </g>
     </g>
     <g id="text_6">
      <!-- 09-07-2021 -->
      <g transform="translate(493.484375 577.755625)rotate(-90)scale(0.1 -0.1)">
       <use xlink:href="#DejaVuSans-30"/>
       <use x="63.623047" xlink:href="#DejaVuSans-39"/>
       <use x="127.246094" xlink:href="#DejaVuSans-2d"/>
       <use x="163.330078" xlink:href="#DejaVuSans-30"/>
       <use x="226.953125" xlink:href="#DejaVuSans-37"/>
       <use x="290.576172" xlink:href="#DejaVuSans-2d"/>
       <use x="326.660156" xlink:href="#DejaVuSans-32"/>
       <use x="390.283203" xlink:href="#DejaVuSans-30"/>
       <use x="453.90625" xlink:href="#DejaVuSans-32"/>
       <use x="517.529297" xlink:href="#DejaVuSans-31"/>
      </g>
     </g>
    </g>
    <g id="xtick_7">
     <g id="line2d_13">
      <path clip-path="url(#p135445113f)" d="M 543.0375 512.64 
L 543.0375 69.12 
" style="fill:none;stroke:#808080;stroke-linecap:square;stroke-width:0.5;"/>
     </g>
     <g id="line2d_14">
      <g>
       <use style="stroke:#000000;stroke-width:0.8;" x="543.0375" xlink:href="#ma70fe5d39a" y="512.64"/>
      </g>
     </g>
     <g id="text_7">
      <!-- 09-17-2021 -->
      <g transform="translate(545.796875 577.755625)rotate(-90)scale(0.1 -0.1)">
       <use xlink:href="#DejaVuSans-30"/>
       <use x="63.623047" xlink:href="#DejaVuSans-39"/>
       <use x="127.246094" xlink:href="#DejaVuSans-2d"/>
       <use x="163.330078" xlink:href="#DejaVuSans-31"/>
       <use x="226.953125" xlink:href="#DejaVuSans-37"/>
       <use x="290.576172" xlink:href="#DejaVuSans-2d"/>
       <use x="326.660156" xlink:href="#DejaVuSans-32"/>
       <use x="390.283203" xlink:href="#DejaVuSans-30"/>
       <use x="453.90625" xlink:href="#DejaVuSans-32"/>
       <use x="517.529297" xlink:href="#DejaVuSans-31"/>
      </g>
     </g>
    </g>
    <g id="xtick_8">
     <g id="line2d_15">
      <path clip-path="url(#p135445113f)" d="M 569.19375 512.64 
L 569.19375 69.12 
" style="fill:none;stroke:#808080;stroke-linecap:square;stroke-width:0.5;"/>
     </g>
     <g id="line2d_16">
      <g>
       <use style="stroke:#000000;stroke-width:0.8;" x="569.19375" xlink:href="#ma70fe5d39a" y="512.64"/>
      </g>
     </g>
     <g id="text_8">
      <!-- 09-22-2021 -->
      <g transform="translate(571.953125 577.755625)rotate(-90)scale(0.1 -0.1)">
       <use xlink:href="#DejaVuSans-30"/>
       <use x="63.623047" xlink:href="#DejaVuSans-39"/>
       <use x="127.246094" xlink:href="#DejaVuSans-2d"/>
       <use x="163.330078" xlink:href="#DejaVuSans-32"/>
       <use x="226.953125" xlink:href="#DejaVuSans-32"/>
       <use x="290.576172" xlink:href="#DejaVuSans-2d"/>
       <use x="326.660156" xlink:href="#DejaVuSans-32"/>
       <use x="390.283203" xlink:href="#DejaVuSans-30"/>
       <use x="453.90625" xlink:href="#DejaVuSans-32"/>
       <use x="517.529297" xlink:href="#DejaVuSans-31"/>
      </g>
     </g>
    </g>
    <g id="xtick_9">
     <g id="line2d_17">
      <path clip-path="url(#p135445113f)" d="M 658.125 512.64 
L 658.125 69.12 
" style="fill:none;stroke:#808080;stroke-linecap:square;stroke-width:0.5;"/>
     </g>
     <g id="line2d_18">
      <g>
       <use style="stroke:#000000;stroke-width:0.8;" x="658.125" xlink:href="#ma70fe5d39a" y="512.64"/>
      </g>
     </g>
     <g id="text_9">
      <!-- 10-09-2021 -->
      <g transform="translate(660.884375 577.755625)rotate(-90)scale(0.1 -0.1)">
       <use xlink:href="#DejaVuSans-31"/>
       <use x="63.623047" xlink:href="#DejaVuSans-30"/>
       <use x="127.246094" xlink:href="#DejaVuSans-2d"/>
       <use x="163.330078" xlink:href="#DejaVuSans-30"/>
       <use x="226.953125" xlink:href="#DejaVuSans-39"/>
       <use x="290.576172" xlink:href="#DejaVuSans-2d"/>
       <use x="326.660156" xlink:href="#DejaVuSans-32"/>
       <use x="390.283203" xlink:href="#DejaVuSans-30"/>
       <use x="453.90625" xlink:href="#DejaVuSans-32"/>
       <use x="517.529297" xlink:href="#DejaVuSans-31"/>
      </g>
     </g>
    </g>
    <g id="xtick_10">
     <g id="line2d_19">
      <path clip-path="url(#p135445113f)" d="M 673.81875 512.64 
L 673.81875 69.12 
" style="fill:none;stroke:#808080;stroke-linecap:square;stroke-width:0.5;"/>
     </g>
     <g id="line2d_20">
      <g>
       <use style="stroke:#000000;stroke-width:0.8;" x="673.81875" xlink:href="#ma70fe5d39a" y="512.64"/>
      </g>
     </g>
     <g id="text_10">
      <!-- 10-12-2021 -->
      <g transform="translate(676.578125 577.755625)rotate(-90)scale(0.1 -0.1)">
       <use xlink:href="#DejaVuSans-31"/>
       <use x="63.623047" xlink:href="#DejaVuSans-30"/>
       <use x="127.246094" xlink:href="#DejaVuSans-2d"/>
       <use x="163.330078" xlink:href="#DejaVuSans-31"/>
       <use x="226.953125" xlink:href="#DejaVuSans-32"/>
       <use x="290.576172" xlink:href="#DejaVuSans-2d"/>
       <use x="326.660156" xlink:href="#DejaVuSans-32"/>
       <use x="390.283203" xlink:href="#DejaVuSans-30"/>
       <use x="453.90625" xlink:href="#DejaVuSans-32"/>
       <use x="517.529297" xlink:href="#DejaVuSans-31"/>
      </g>
     </g>
    </g>
    <g id="xtick_11">
     <g id="line2d_21">
      <path clip-path="url(#p135445113f)" d="M 689.5125 512.64 
L 689.5125 69.12 
" style="fill:none;stroke:#808080;stroke-linecap:square;stroke-width:0.5;"/>
     </g>
     <g id="line2d_22">
      <g>
       <use style="stroke:#000000;stroke-width:0.8;" x="689.5125" xlink:href="#ma70fe5d39a" y="512.64"/>
      </g>
     </g>
     <g id="text_11">
      <!-- 10-18-2021 -->
      <g transform="translate(692.271875 577.755625)rotate(-90)scale(0.1 -0.1)">
       <use xlink:href="#DejaVuSans-31"/>
       <use x="63.623047" xlink:href="#DejaVuSans-30"/>
       <use x="127.246094" xlink:href="#DejaVuSans-2d"/>
       <use x="163.330078" xlink:href="#DejaVuSans-31"/>
       <use x="226.953125" xlink:href="#DejaVuSans-38"/>
       <use x="290.576172" xlink:href="#DejaVuSans-2d"/>
       <use x="326.660156" xlink:href="#DejaVuSans-32"/>
       <use x="390.283203" xlink:href="#DejaVuSans-30"/>
       <use x="453.90625" xlink:href="#DejaVuSans-32"/>
       <use x="517.529297" xlink:href="#DejaVuSans-31"/>
      </g>
     </g>
    </g>
    <g id="xtick_12">
     <g id="line2d_23">
      <path clip-path="url(#p135445113f)" d="M 862.14375 512.64 
L 862.14375 69.12 
" style="fill:none;stroke:#808080;stroke-linecap:square;stroke-width:0.5;"/>
     </g>
     <g id="line2d_24">
      <g>
       <use style="stroke:#000000;stroke-width:0.8;" x="862.14375" xlink:href="#ma70fe5d39a" y="512.64"/>
      </g>
     </g>
     <g id="text_12">
      <!-- 11-24-2021 -->
      <g transform="translate(864.903125 577.755625)rotate(-90)scale(0.1 -0.1)">
       <use xlink:href="#DejaVuSans-31"/>
       <use x="63.623047" xlink:href="#DejaVuSans-31"/>
       <use x="127.246094" xlink:href="#DejaVuSans-2d"/>
       <use x="163.330078" xlink:href="#DejaVuSans-32"/>
       <use x="226.953125" xlink:href="#DejaVuSans-34"/>
       <use x="290.576172" xlink:href="#DejaVuSans-2d"/>
       <use x="326.660156" xlink:href="#DejaVuSans-32"/>
       <use x="390.283203" xlink:href="#DejaVuSans-30"/>
       <use x="453.90625" xlink:href="#DejaVuSans-32"/>
       <use x="517.529297" xlink:href="#DejaVuSans-31"/>
      </g>
     </g>
    </g>
    <g id="xtick_13">
     <g id="line2d_25">
      <path clip-path="url(#p135445113f)" d="M 924.91875 512.64 
L 924.91875 69.12 
" style="fill:none;stroke:#808080;stroke-linecap:square;stroke-width:0.5;"/>
     </g>
     <g id="line2d_26">
      <g>
       <use style="stroke:#000000;stroke-width:0.8;" x="924.91875" xlink:href="#ma70fe5d39a" y="512.64"/>
      </g>
     </g>
     <g id="text_13">
      <!-- 12-06-2021 -->
      <g transform="translate(927.678125 577.755625)rotate(-90)scale(0.1 -0.1)">
       <use xlink:href="#DejaVuSans-31"/>
       <use x="63.623047" xlink:href="#DejaVuSans-32"/>
       <use x="127.246094" xlink:href="#DejaVuSans-2d"/>
       <use x="163.330078" xlink:href="#DejaVuSans-30"/>
       <use x="226.953125" xlink:href="#DejaVuSans-36"/>
       <use x="290.576172" xlink:href="#DejaVuSans-2d"/>
       <use x="326.660156" xlink:href="#DejaVuSans-32"/>
       <use x="390.283203" xlink:href="#DejaVuSans-30"/>
       <use x="453.90625" xlink:href="#DejaVuSans-32"/>
       <use x="517.529297" xlink:href="#DejaVuSans-31"/>
      </g>
     </g>
    </g>
    <g id="text_14">
     <!-- Days -->
     <g transform="translate(541.021875 589.354063)scale(0.1 -0.1)">
      <defs>
       <path d="M 1259 4147 
L 1259 519 
L 2022 519 
Q 2988 519 3436 956 
Q 3884 1394 3884 2338 
Q 3884 3275 3436 3711 
Q 2988 4147 2022 4147 
L 1259 4147 
z
M 628 4666 
L 1925 4666 
Q 3281 4666 3915 4102 
Q 4550 3538 4550 2338 
Q 4550 1131 3912 565 
Q 3275 0 1925 0 
L 628 0 
L 628 4666 
z
" id="DejaVuSans-44" transform="scale(0.015625)"/>
       <path d="M 2194 1759 
Q 1497 1759 1228 1600 
Q 959 1441 959 1056 
Q 959 750 1161 570 
Q 1363 391 1709 391 
Q 2188 391 2477 730 
Q 2766 1069 2766 1631 
L 2766 1759 
L 2194 1759 
z
M 3341 1997 
L 3341 0 
L 2766 0 
L 2766 531 
Q 2569 213 2275 61 
Q 1981 -91 1556 -91 
Q 1019 -91 701 211 
Q 384 513 384 1019 
Q 384 1609 779 1909 
Q 1175 2209 1959 2209 
L 2766 2209 
L 2766 2266 
Q 2766 2663 2505 2880 
Q 2244 3097 1772 3097 
Q 1472 3097 1187 3025 
Q 903 2953 641 2809 
L 641 3341 
Q 956 3463 1253 3523 
Q 1550 3584 1831 3584 
Q 2591 3584 2966 3190 
Q 3341 2797 3341 1997 
z
" id="DejaVuSans-61" transform="scale(0.015625)"/>
       <path d="M 2059 -325 
Q 1816 -950 1584 -1140 
Q 1353 -1331 966 -1331 
L 506 -1331 
L 506 -850 
L 844 -850 
Q 1081 -850 1212 -737 
Q 1344 -625 1503 -206 
L 1606 56 
L 191 3500 
L 800 3500 
L 1894 763 
L 2988 3500 
L 3597 3500 
L 2059 -325 
z
" id="DejaVuSans-79" transform="scale(0.015625)"/>
       <path d="M 2834 3397 
L 2834 2853 
Q 2591 2978 2328 3040 
Q 2066 3103 1784 3103 
Q 1356 3103 1142 2972 
Q 928 2841 928 2578 
Q 928 2378 1081 2264 
Q 1234 2150 1697 2047 
L 1894 2003 
Q 2506 1872 2764 1633 
Q 3022 1394 3022 966 
Q 3022 478 2636 193 
Q 2250 -91 1575 -91 
Q 1294 -91 989 -36 
Q 684 19 347 128 
L 347 722 
Q 666 556 975 473 
Q 1284 391 1588 391 
Q 1994 391 2212 530 
Q 2431 669 2431 922 
Q 2431 1156 2273 1281 
Q 2116 1406 1581 1522 
L 1381 1569 
Q 847 1681 609 1914 
Q 372 2147 372 2553 
Q 372 3047 722 3315 
Q 1072 3584 1716 3584 
Q 2034 3584 2315 3537 
Q 2597 3491 2834 3397 
z
" id="DejaVuSans-73" transform="scale(0.015625)"/>
      </defs>
      <use xlink:href="#DejaVuSans-44"/>
      <use x="77.001953" xlink:href="#DejaVuSans-61"/>
      <use x="138.28125" xlink:href="#DejaVuSans-79"/>
      <use x="197.460938" xlink:href="#DejaVuSans-73"/>
     </g>
    </g>
   </g>
   <g id="matplotlib.axis_2">
    <g id="ytick_1">
     <g id="line2d_27">
      <path clip-path="url(#p135445113f)" d="M 135 497.815073 
L 972 497.815073 
" style="fill:none;stroke:#808080;stroke-linecap:square;stroke-width:0.5;"/>
     </g>
     <g id="line2d_28">
      <defs>
       <path d="M 0 0 
L -3.5 0 
" id="md9608a12fb" style="stroke:#000000;stroke-width:0.8;"/>
      </defs>
      <g>
       <use style="stroke:#000000;stroke-width:0.8;" x="135" xlink:href="#md9608a12fb" y="497.815073"/>
      </g>
     </g>
     <g id="text_15">
      <!-- 0 -->
      <g transform="translate(121.6375 501.614292)scale(0.1 -0.1)">
       <use xlink:href="#DejaVuSans-30"/>
      </g>
     </g>
    </g>
    <g id="ytick_2">
     <g id="line2d_29">
      <path clip-path="url(#p135445113f)" d="M 135 424.731876 
L 972 424.731876 
" style="fill:none;stroke:#808080;stroke-linecap:square;stroke-width:0.5;"/>
     </g>
     <g id="line2d_30">
      <g>
       <use style="stroke:#000000;stroke-width:0.8;" x="135" xlink:href="#md9608a12fb" y="424.731876"/>
      </g>
     </g>
     <g id="text_16">
      <!-- 2000 -->
      <g transform="translate(102.55 428.531095)scale(0.1 -0.1)">
       <use xlink:href="#DejaVuSans-32"/>
       <use x="63.623047" xlink:href="#DejaVuSans-30"/>
       <use x="127.246094" xlink:href="#DejaVuSans-30"/>
       <use x="190.869141" xlink:href="#DejaVuSans-30"/>
      </g>
     </g>
    </g>
    <g id="ytick_3">
     <g id="line2d_31">
      <path clip-path="url(#p135445113f)" d="M 135 351.648679 
L 972 351.648679 
" style="fill:none;stroke:#808080;stroke-linecap:square;stroke-width:0.5;"/>
     </g>
     <g id="line2d_32">
      <g>
       <use style="stroke:#000000;stroke-width:0.8;" x="135" xlink:href="#md9608a12fb" y="351.648679"/>
      </g>
     </g>
     <g id="text_17">
      <!-- 4000 -->
      <g transform="translate(102.55 355.447897)scale(0.1 -0.1)">
       <use xlink:href="#DejaVuSans-34"/>
       <use x="63.623047" xlink:href="#DejaVuSans-30"/>
       <use x="127.246094" xlink:href="#DejaVuSans-30"/>
       <use x="190.869141" xlink:href="#DejaVuSans-30"/>
      </g>
     </g>
    </g>
    <g id="ytick_4">
     <g id="line2d_33">
      <path clip-path="url(#p135445113f)" d="M 135 278.565481 
L 972 278.565481 
" style="fill:none;stroke:#808080;stroke-linecap:square;stroke-width:0.5;"/>
     </g>
     <g id="line2d_34">
      <g>
       <use style="stroke:#000000;stroke-width:0.8;" x="135" xlink:href="#md9608a12fb" y="278.565481"/>
      </g>
     </g>
     <g id="text_18">
      <!-- 6000 -->
      <g transform="translate(102.55 282.3647)scale(0.1 -0.1)">
       <use xlink:href="#DejaVuSans-36"/>
       <use x="63.623047" xlink:href="#DejaVuSans-30"/>
       <use x="127.246094" xlink:href="#DejaVuSans-30"/>
       <use x="190.869141" xlink:href="#DejaVuSans-30"/>
      </g>
     </g>
    </g>
    <g id="ytick_5">
     <g id="line2d_35">
      <path clip-path="url(#p135445113f)" d="M 135 205.482284 
L 972 205.482284 
" style="fill:none;stroke:#808080;stroke-linecap:square;stroke-width:0.5;"/>
     </g>
     <g id="line2d_36">
      <g>
       <use style="stroke:#000000;stroke-width:0.8;" x="135" xlink:href="#md9608a12fb" y="205.482284"/>
      </g>
     </g>
     <g id="text_19">
      <!-- 8000 -->
      <g transform="translate(102.55 209.281503)scale(0.1 -0.1)">
       <use xlink:href="#DejaVuSans-38"/>
       <use x="63.623047" xlink:href="#DejaVuSans-30"/>
       <use x="127.246094" xlink:href="#DejaVuSans-30"/>
       <use x="190.869141" xlink:href="#DejaVuSans-30"/>
      </g>
     </g>
    </g>
    <g id="ytick_6">
     <g id="line2d_37">
      <path clip-path="url(#p135445113f)" d="M 135 132.399086 
L 972 132.399086 
" style="fill:none;stroke:#808080;stroke-linecap:square;stroke-width:0.5;"/>
     </g>
     <g id="line2d_38">
      <g>
       <use style="stroke:#000000;stroke-width:0.8;" x="135" xlink:href="#md9608a12fb" y="132.399086"/>
      </g>
     </g>
     <g id="text_20">
      <!-- 10000 -->
      <g transform="translate(96.1875 136.198305)scale(0.1 -0.1)">
       <use xlink:href="#DejaVuSans-31"/>
       <use x="63.623047" xlink:href="#DejaVuSans-30"/>
       <use x="127.246094" xlink:href="#DejaVuSans-30"/>
       <use x="190.869141" xlink:href="#DejaVuSans-30"/>
       <use x="254.492188" xlink:href="#DejaVuSans-30"/>
      </g>
     </g>
    </g>
    <g id="text_21">
     <!-- Tweets -->
     <g transform="translate(90.107812 307.915937)rotate(-90)scale(0.1 -0.1)">
      <defs>
       <path d="M -19 4666 
L 3928 4666 
L 3928 4134 
L 2272 4134 
L 2272 0 
L 1638 0 
L 1638 4134 
L -19 4134 
L -19 4666 
z
" id="DejaVuSans-54" transform="scale(0.015625)"/>
       <path d="M 269 3500 
L 844 3500 
L 1563 769 
L 2278 3500 
L 2956 3500 
L 3675 769 
L 4391 3500 
L 4966 3500 
L 4050 0 
L 3372 0 
L 2619 2869 
L 1863 0 
L 1184 0 
L 269 3500 
z
" id="DejaVuSans-77" transform="scale(0.015625)"/>
       <path d="M 3597 1894 
L 3597 1613 
L 953 1613 
Q 991 1019 1311 708 
Q 1631 397 2203 397 
Q 2534 397 2845 478 
Q 3156 559 3463 722 
L 3463 178 
Q 3153 47 2828 -22 
Q 2503 -91 2169 -91 
Q 1331 -91 842 396 
Q 353 884 353 1716 
Q 353 2575 817 3079 
Q 1281 3584 2069 3584 
Q 2775 3584 3186 3129 
Q 3597 2675 3597 1894 
z
M 3022 2063 
Q 3016 2534 2758 2815 
Q 2500 3097 2075 3097 
Q 1594 3097 1305 2825 
Q 1016 2553 972 2059 
L 3022 2063 
z
" id="DejaVuSans-65" transform="scale(0.015625)"/>
       <path d="M 1172 4494 
L 1172 3500 
L 2356 3500 
L 2356 3053 
L 1172 3053 
L 1172 1153 
Q 1172 725 1289 603 
Q 1406 481 1766 481 
L 2356 481 
L 2356 0 
L 1766 0 
Q 1100 0 847 248 
Q 594 497 594 1153 
L 594 3053 
L 172 3053 
L 172 3500 
L 594 3500 
L 594 4494 
L 1172 4494 
z
" id="DejaVuSans-74" transform="scale(0.015625)"/>
      </defs>
      <use xlink:href="#DejaVuSans-54"/>
      <use x="44.583984" xlink:href="#DejaVuSans-77"/>
      <use x="126.371094" xlink:href="#DejaVuSans-65"/>
      <use x="187.894531" xlink:href="#DejaVuSans-65"/>
      <use x="249.417969" xlink:href="#DejaVuSans-74"/>
      <use x="288.626953" xlink:href="#DejaVuSans-73"/>
     </g>
    </g>
   </g>
   <g id="line2d_39">
    <path clip-path="url(#p135445113f)" d="M 135 472.162871 
L 140.23125 483.710016 
L 145.4625 480.348189 
L 150.69375 486.633344 
L 155.925 485.756346 
L 161.15625 486.816052 
L 166.3875 488.716215 
L 171.61875 489.154715 
L 176.85 490.324046 
L 182.08125 492.48 
L 187.3125 490.65292 
L 192.54375 483.161892 
L 197.775 430.76124 
L 203.00625 318.907406 
L 208.2375 348.761892 
L 213.46875 399.189299 
L 218.7 402.733834 
L 223.93125 378.762545 
L 229.1625 351.648679 
L 234.39375 349.3831 
L 239.625 275.532529 
L 244.85625 89.28 
L 250.0875 240.269886 
L 255.31875 222.54721 
L 260.55 275.349821 
L 265.78125 298.297945 
L 271.0125 304.656183 
L 276.24375 335.716542 
L 281.475 342.586362 
L 286.70625 380.553083 
L 291.9375 400.102838 
L 297.16875 416.327308 
L 302.4 409.128613 
L 307.63125 389.505775 
L 312.8625 358.408874 
L 318.09375 246.555041 
L 323.325 178.478042 
L 328.55625 268.333834 
L 333.7875 318.286199 
L 339.01875 268.881958 
L 344.25 319.309364 
L 349.48125 327.238891 
L 354.7125 355.33938 
L 359.94375 373.39093 
L 365.175 375.619967 
L 370.40625 416.802349 
L 375.6375 405.986036 
L 380.86875 421.516215 
L 386.1 414.53677 
L 391.33125 417.752431 
L 396.5625 424.804959 
L 401.79375 430.578532 
L 407.025 416.473475 
L 412.25625 421.187341 
L 417.4875 415.852268 
L 422.71875 400.724046 
L 427.95 418.117847 
L 433.18125 423.197129 
L 438.4125 410.955693 
L 443.64375 412.746232 
L 448.875 399.773964 
L 454.10625 371.490767 
L 459.3375 296.470865 
L 464.56875 324.279021 
L 469.8 397.033344 
L 475.03125 410.88261 
L 480.2625 419.981468 
L 485.49375 379.091419 
L 490.725 309.62584 
L 495.95625 335.68 
L 501.1875 337.762871 
L 506.41875 364.657488 
L 511.65 414.427145 
L 516.88125 409.676737 
L 522.1125 369.882936 
L 527.34375 381.356998 
L 532.575 322.269233 
L 537.80625 315.033997 
L 543.0375 275.861403 
L 548.26875 355.33938 
L 553.5 374.048679 
L 558.73125 355.997129 
L 563.9625 356.435628 
L 569.19375 322.086525 
L 574.425 373.135139 
L 579.65625 404.268581 
L 584.8875 392.173312 
L 590.11875 403.172333 
L 595.35 393.634976 
L 600.58125 419.214095 
L 605.8125 420.858467 
L 611.04375 428.02062 
L 616.275 434.159608 
L 621.50625 439.787015 
L 626.7375 443.002675 
L 631.96875 441.431387 
L 637.2 430.505449 
L 642.43125 437.667602 
L 647.6625 408.470865 
L 652.89375 413.294356 
L 658.125 304.911974 
L 663.35625 312.220294 
L 668.5875 309.954715 
L 673.81875 272.536117 
L 679.05 277.907732 
L 684.28125 347.227145 
L 689.5125 307.835302 
L 694.74375 351.977553 
L 699.975 377.300881 
L 705.20625 372.660098 
L 710.4375 402.039543 
L 715.66875 384.13416 
L 720.9 401.345253 
L 726.13125 401.381794 
L 731.3625 424.476085 
L 736.59375 437.119478 
L 741.825 423.526003 
L 747.05625 413.84248 
L 752.2875 407.22845 
L 757.51875 409.238238 
L 762.75 426.266623 
L 767.98125 427.289788 
L 773.2125 431.784405 
L 778.44375 415.815726 
L 783.675 416.875432 
L 788.90625 415.706101 
L 794.1375 429.116868 
L 799.36875 424.074127 
L 804.6 421.735465 
L 809.83125 429.482284 
L 815.0625 428.824535 
L 820.29375 426.595498 
L 825.525 417.496639 
L 830.75625 412.161566 
L 835.9875 424.439543 
L 841.21875 408.032365 
L 846.45 425.426166 
L 851.68125 406.936117 
L 856.9125 404.524372 
L 862.14375 305.496639 
L 867.375 333.450962 
L 872.60625 403.939706 
L 877.8375 412.088483 
L 883.06875 426.19354 
L 888.3 425.572333 
L 893.53125 439.713931 
L 898.7625 438.361892 
L 903.99375 423.014421 
L 909.225 416.327308 
L 914.45625 432.880653 
L 919.6875 410.18832 
L 924.91875 352.927635 
L 930.15 396.667928 
L 935.38125 428.459119 
L 945.84375 425.133834 
L 951.075 444.02584 
L 956.30625 446.98571 
L 961.5375 435.292398 
L 966.76875 435.913605 
L 972 406.936117 
L 972 406.936117 
" style="fill:none;stroke:#87ceeb;stroke-linecap:square;stroke-width:2;"/>
   </g>
   <g id="patch_3">
    <path d="M 135 512.64 
L 135 69.12 
" style="fill:none;stroke:#000000;stroke-linecap:square;stroke-linejoin:miter;stroke-width:0.8;"/>
   </g>
   <g id="patch_4">
    <path d="M 972 512.64 
L 972 69.12 
" style="fill:none;stroke:#000000;stroke-linecap:square;stroke-linejoin:miter;stroke-width:0.8;"/>
   </g>
   <g id="patch_5">
    <path d="M 135 512.64 
L 972 512.64 
" style="fill:none;stroke:#000000;stroke-linecap:square;stroke-linejoin:miter;stroke-width:0.8;"/>
   </g>
   <g id="patch_6">
    <path d="M 135 69.12 
L 972 69.12 
" style="fill:none;stroke:#000000;stroke-linecap:square;stroke-linejoin:miter;stroke-width:0.8;"/>
   </g>
   <g id="text_22">
    <!-- Date Events -->
    <g transform="translate(516.9375 63.12)scale(0.12 -0.12)">
     <defs>
      <path id="DejaVuSans-20" transform="scale(0.015625)"/>
      <path d="M 628 4666 
L 3578 4666 
L 3578 4134 
L 1259 4134 
L 1259 2753 
L 3481 2753 
L 3481 2222 
L 1259 2222 
L 1259 531 
L 3634 531 
L 3634 0 
L 628 0 
L 628 4666 
z
" id="DejaVuSans-45" transform="scale(0.015625)"/>
      <path d="M 191 3500 
L 800 3500 
L 1894 563 
L 2988 3500 
L 3597 3500 
L 2284 0 
L 1503 0 
L 191 3500 
z
" id="DejaVuSans-76" transform="scale(0.015625)"/>
      <path d="M 3513 2113 
L 3513 0 
L 2938 0 
L 2938 2094 
Q 2938 2591 2744 2837 
Q 2550 3084 2163 3084 
Q 1697 3084 1428 2787 
Q 1159 2491 1159 1978 
L 1159 0 
L 581 0 
L 581 3500 
L 1159 3500 
L 1159 2956 
Q 1366 3272 1645 3428 
Q 1925 3584 2291 3584 
Q 2894 3584 3203 3211 
Q 3513 2838 3513 2113 
z
" id="DejaVuSans-6e" transform="scale(0.015625)"/>
     </defs>
     <use xlink:href="#DejaVuSans-44"/>
     <use x="77.001953" xlink:href="#DejaVuSans-61"/>
     <use x="138.28125" xlink:href="#DejaVuSans-74"/>
     <use x="177.490234" xlink:href="#DejaVuSans-65"/>
     <use x="239.013672" xlink:href="#DejaVuSans-20"/>
     <use x="270.800781" xlink:href="#DejaVuSans-45"/>
     <use x="333.984375" xlink:href="#DejaVuSans-76"/>
     <use x="393.164062" xlink:href="#DejaVuSans-65"/>
     <use x="454.6875" xlink:href="#DejaVuSans-6e"/>
     <use x="518.066406" xlink:href="#DejaVuSans-74"/>
     <use x="557.275391" xlink:href="#DejaVuSans-73"/>
    </g>
   </g>
  </g>
 </g>
 <defs>
  <clipPath id="p135445113f">
   <rect height="443.52" width="837" x="135" y="69.12"/>
  </clipPath>
 </defs>
</svg>
